<svg width="1240" height="640" viewBox="0 0 1240 640" fill="none" xmlns="http://www.w3.org/2000/svg">
<g clip-path="url(#clip0_1_14773)">
<rect width="1240" height="640" fill="white"/>
<g opacity="0.75" clip-path="url(#clip1_1_14773)">
<circle cx="2" cy="2" r="2" fill="#D2D6DB"/>
<circle cx="30" cy="2" r="2" fill="#D2D6DB"/>
<circle cx="58" cy="2" r="2" fill="#D2D6DB"/>
<circle cx="86" cy="2" r="2" fill="#D2D6DB"/>
<circle cx="114" cy="2" r="2" fill="#D2D6DB"/>
<circle cx="142" cy="2" r="2" fill="#D2D6DB"/>
<circle cx="170" cy="2" r="2" fill="#D2D6DB"/>
<circle cx="198" cy="2" r="2" fill="#D2D6DB"/>
<circle cx="226" cy="2" r="2" fill="#D2D6DB"/>
<circle cx="254" cy="2" r="2" fill="#D2D6DB"/>
<circle cx="282" cy="2" r="2" fill="#D2D6DB"/>
<circle cx="310" cy="2" r="2" fill="#D2D6DB"/>
<circle cx="338" cy="2" r="2" fill="#D2D6DB"/>
<circle cx="366" cy="2" r="2" fill="#D2D6DB"/>
<circle cx="394" cy="2" r="2" fill="#D2D6DB"/>
<circle cx="422" cy="2" r="2" fill="#D2D6DB"/>
<circle cx="450" cy="2" r="2" fill="#D2D6DB"/>
<circle cx="478" cy="2" r="2" fill="#D2D6DB"/>
<circle cx="506" cy="2" r="2" fill="#D2D6DB"/>
<circle cx="534" cy="2" r="2" fill="#D2D6DB"/>
<circle cx="562" cy="2" r="2" fill="#D2D6DB"/>
<circle cx="590" cy="2" r="2" fill="#D2D6DB"/>
<circle cx="618" cy="2" r="2" fill="#D2D6DB"/>
<circle cx="646" cy="2" r="2" fill="#D2D6DB"/>
<circle cx="674" cy="2" r="2" fill="#D2D6DB"/>
<circle cx="702" cy="2" r="2" fill="#D2D6DB"/>
<circle cx="730" cy="2" r="2" fill="#D2D6DB"/>
<circle cx="758" cy="2" r="2" fill="#D2D6DB"/>
<circle cx="786" cy="2" r="2" fill="#D2D6DB"/>
<circle cx="814" cy="2" r="2" fill="#D2D6DB"/>
<circle cx="842" cy="2" r="2" fill="#D2D6DB"/>
<circle cx="870" cy="2" r="2" fill="#D2D6DB"/>
<circle cx="898" cy="2" r="2" fill="#D2D6DB"/>
<circle cx="926" cy="2" r="2" fill="#D2D6DB"/>
<circle cx="954" cy="2" r="2" fill="#D2D6DB"/>
<circle cx="982" cy="2" r="2" fill="#D2D6DB"/>
<circle cx="1010" cy="2" r="2" fill="#D2D6DB"/>
<circle cx="1038" cy="2" r="2" fill="#D2D6DB"/>
<circle cx="1066" cy="2" r="2" fill="#D2D6DB"/>
<circle cx="1094" cy="2" r="2" fill="#D2D6DB"/>
<circle cx="1122" cy="2" r="2" fill="#D2D6DB"/>
<circle cx="1150" cy="2" r="2" fill="#D2D6DB"/>
<circle cx="1178" cy="2" r="2" fill="#D2D6DB"/>
<circle cx="1206" cy="2" r="2" fill="#D2D6DB"/>
<circle cx="1234" cy="2" r="2" fill="#D2D6DB"/>
<circle cx="2" cy="30" r="2" fill="#D2D6DB"/>
<circle cx="30" cy="30" r="2" fill="#D2D6DB"/>
<circle cx="58" cy="30" r="2" fill="#D2D6DB"/>
<circle cx="86" cy="30" r="2" fill="#D2D6DB"/>
<circle cx="114" cy="30" r="2" fill="#D2D6DB"/>
<circle cx="142" cy="30" r="2" fill="#D2D6DB"/>
<circle cx="170" cy="30" r="2" fill="#D2D6DB"/>
<circle cx="198" cy="30" r="2" fill="#D2D6DB"/>
<circle cx="226" cy="30" r="2" fill="#D2D6DB"/>
<circle cx="254" cy="30" r="2" fill="#D2D6DB"/>
<circle cx="282" cy="30" r="2" fill="#D2D6DB"/>
<circle cx="310" cy="30" r="2" fill="#D2D6DB"/>
<circle cx="338" cy="30" r="2" fill="#D2D6DB"/>
<circle cx="366" cy="30" r="2" fill="#D2D6DB"/>
<circle cx="394" cy="30" r="2" fill="#D2D6DB"/>
<circle cx="422" cy="30" r="2" fill="#D2D6DB"/>
<circle cx="450" cy="30" r="2" fill="#D2D6DB"/>
<circle cx="478" cy="30" r="2" fill="#D2D6DB"/>
<circle cx="506" cy="30" r="2" fill="#D2D6DB"/>
<circle cx="534" cy="30" r="2" fill="#D2D6DB"/>
<circle cx="562" cy="30" r="2" fill="#D2D6DB"/>
<circle cx="590" cy="30" r="2" fill="#D2D6DB"/>
<circle cx="618" cy="30" r="2" fill="#D2D6DB"/>
<circle cx="646" cy="30" r="2" fill="#D2D6DB"/>
<circle cx="674" cy="30" r="2" fill="#D2D6DB"/>
<circle cx="702" cy="30" r="2" fill="#D2D6DB"/>
<circle cx="730" cy="30" r="2" fill="#D2D6DB"/>
<circle cx="758" cy="30" r="2" fill="#D2D6DB"/>
<circle cx="786" cy="30" r="2" fill="#D2D6DB"/>
<circle cx="814" cy="30" r="2" fill="#D2D6DB"/>
<circle cx="842" cy="30" r="2" fill="#D2D6DB"/>
<circle cx="870" cy="30" r="2" fill="#D2D6DB"/>
<circle cx="898" cy="30" r="2" fill="#D2D6DB"/>
<circle cx="926" cy="30" r="2" fill="#D2D6DB"/>
<circle cx="954" cy="30" r="2" fill="#D2D6DB"/>
<circle cx="982" cy="30" r="2" fill="#D2D6DB"/>
<circle cx="1010" cy="30" r="2" fill="#D2D6DB"/>
<circle cx="1038" cy="30" r="2" fill="#D2D6DB"/>
<circle cx="1066" cy="30" r="2" fill="#D2D6DB"/>
<circle cx="1094" cy="30" r="2" fill="#D2D6DB"/>
<circle cx="1122" cy="30" r="2" fill="#D2D6DB"/>
<circle cx="1150" cy="30" r="2" fill="#D2D6DB"/>
<circle cx="1178" cy="30" r="2" fill="#D2D6DB"/>
<circle cx="1206" cy="30" r="2" fill="#D2D6DB"/>
<circle cx="1234" cy="30" r="2" fill="#D2D6DB"/>
<circle cx="2" cy="58" r="2" fill="#D2D6DB"/>
<circle cx="30" cy="58" r="2" fill="#D2D6DB"/>
<circle cx="58" cy="58" r="2" fill="#D2D6DB"/>
<circle cx="86" cy="58" r="2" fill="#D2D6DB"/>
<circle cx="114" cy="58" r="2" fill="#D2D6DB"/>
<circle cx="142" cy="58" r="2" fill="#D2D6DB"/>
<circle cx="170" cy="58" r="2" fill="#D2D6DB"/>
<circle cx="198" cy="58" r="2" fill="#D2D6DB"/>
<circle cx="226" cy="58" r="2" fill="#D2D6DB"/>
<circle cx="254" cy="58" r="2" fill="#D2D6DB"/>
<circle cx="282" cy="58" r="2" fill="#D2D6DB"/>
<circle cx="310" cy="58" r="2" fill="#D2D6DB"/>
<circle cx="338" cy="58" r="2" fill="#D2D6DB"/>
<circle cx="366" cy="58" r="2" fill="#D2D6DB"/>
<circle cx="394" cy="58" r="2" fill="#D2D6DB"/>
<circle cx="422" cy="58" r="2" fill="#D2D6DB"/>
<circle cx="450" cy="58" r="2" fill="#D2D6DB"/>
<circle cx="478" cy="58" r="2" fill="#D2D6DB"/>
<circle cx="506" cy="58" r="2" fill="#D2D6DB"/>
<circle cx="534" cy="58" r="2" fill="#D2D6DB"/>
<circle cx="562" cy="58" r="2" fill="#D2D6DB"/>
<circle cx="590" cy="58" r="2" fill="#D2D6DB"/>
<circle cx="618" cy="58" r="2" fill="#D2D6DB"/>
<circle cx="646" cy="58" r="2" fill="#D2D6DB"/>
<circle cx="674" cy="58" r="2" fill="#D2D6DB"/>
<circle cx="702" cy="58" r="2" fill="#D2D6DB"/>
<circle cx="730" cy="58" r="2" fill="#D2D6DB"/>
<circle cx="758" cy="58" r="2" fill="#D2D6DB"/>
<circle cx="786" cy="58" r="2" fill="#D2D6DB"/>
<circle cx="814" cy="58" r="2" fill="#D2D6DB"/>
<circle cx="842" cy="58" r="2" fill="#D2D6DB"/>
<circle cx="870" cy="58" r="2" fill="#D2D6DB"/>
<circle cx="898" cy="58" r="2" fill="#D2D6DB"/>
<circle cx="926" cy="58" r="2" fill="#D2D6DB"/>
<circle cx="954" cy="58" r="2" fill="#D2D6DB"/>
<circle cx="982" cy="58" r="2" fill="#D2D6DB"/>
<circle cx="1010" cy="58" r="2" fill="#D2D6DB"/>
<circle cx="1038" cy="58" r="2" fill="#D2D6DB"/>
<circle cx="1066" cy="58" r="2" fill="#D2D6DB"/>
<circle cx="1094" cy="58" r="2" fill="#D2D6DB"/>
<circle cx="1122" cy="58" r="2" fill="#D2D6DB"/>
<circle cx="1150" cy="58" r="2" fill="#D2D6DB"/>
<circle cx="1178" cy="58" r="2" fill="#D2D6DB"/>
<circle cx="1206" cy="58" r="2" fill="#D2D6DB"/>
<circle cx="1234" cy="58" r="2" fill="#D2D6DB"/>
<circle cx="2" cy="86" r="2" fill="#D2D6DB"/>
<circle cx="30" cy="86" r="2" fill="#D2D6DB"/>
<circle cx="58" cy="86" r="2" fill="#D2D6DB"/>
<circle cx="86" cy="86" r="2" fill="#D2D6DB"/>
<circle cx="114" cy="86" r="2" fill="#D2D6DB"/>
<circle cx="142" cy="86" r="2" fill="#D2D6DB"/>
<circle cx="170" cy="86" r="2" fill="#D2D6DB"/>
<circle cx="198" cy="86" r="2" fill="#D2D6DB"/>
<circle cx="226" cy="86" r="2" fill="#D2D6DB"/>
<circle cx="254" cy="86" r="2" fill="#D2D6DB"/>
<circle cx="282" cy="86" r="2" fill="#D2D6DB"/>
<circle cx="310" cy="86" r="2" fill="#D2D6DB"/>
<circle cx="338" cy="86" r="2" fill="#D2D6DB"/>
<circle cx="366" cy="86" r="2" fill="#D2D6DB"/>
<circle cx="394" cy="86" r="2" fill="#D2D6DB"/>
<circle cx="422" cy="86" r="2" fill="#D2D6DB"/>
<circle cx="450" cy="86" r="2" fill="#D2D6DB"/>
<circle cx="478" cy="86" r="2" fill="#D2D6DB"/>
<circle cx="506" cy="86" r="2" fill="#D2D6DB"/>
<circle cx="534" cy="86" r="2" fill="#D2D6DB"/>
<circle cx="562" cy="86" r="2" fill="#D2D6DB"/>
<circle cx="590" cy="86" r="2" fill="#D2D6DB"/>
<circle cx="618" cy="86" r="2" fill="#D2D6DB"/>
<circle cx="646" cy="86" r="2" fill="#D2D6DB"/>
<circle cx="674" cy="86" r="2" fill="#D2D6DB"/>
<circle cx="702" cy="86" r="2" fill="#D2D6DB"/>
<circle cx="730" cy="86" r="2" fill="#D2D6DB"/>
<circle cx="758" cy="86" r="2" fill="#D2D6DB"/>
<circle cx="786" cy="86" r="2" fill="#D2D6DB"/>
<circle cx="814" cy="86" r="2" fill="#D2D6DB"/>
<circle cx="842" cy="86" r="2" fill="#D2D6DB"/>
<circle cx="870" cy="86" r="2" fill="#D2D6DB"/>
<circle cx="898" cy="86" r="2" fill="#D2D6DB"/>
<circle cx="926" cy="86" r="2" fill="#D2D6DB"/>
<circle cx="954" cy="86" r="2" fill="#D2D6DB"/>
<circle cx="982" cy="86" r="2" fill="#D2D6DB"/>
<circle cx="1010" cy="86" r="2" fill="#D2D6DB"/>
<circle cx="1038" cy="86" r="2" fill="#D2D6DB"/>
<circle cx="1066" cy="86" r="2" fill="#D2D6DB"/>
<circle cx="1094" cy="86" r="2" fill="#D2D6DB"/>
<circle cx="1122" cy="86" r="2" fill="#D2D6DB"/>
<circle cx="1150" cy="86" r="2" fill="#D2D6DB"/>
<circle cx="1178" cy="86" r="2" fill="#D2D6DB"/>
<circle cx="1206" cy="86" r="2" fill="#D2D6DB"/>
<circle cx="1234" cy="86" r="2" fill="#D2D6DB"/>
<circle cx="2" cy="114" r="2" fill="#D2D6DB"/>
<circle cx="30" cy="114" r="2" fill="#D2D6DB"/>
<circle cx="58" cy="114" r="2" fill="#D2D6DB"/>
<circle cx="86" cy="114" r="2" fill="#D2D6DB"/>
<circle cx="114" cy="114" r="2" fill="#D2D6DB"/>
<circle cx="142" cy="114" r="2" fill="#D2D6DB"/>
<circle cx="170" cy="114" r="2" fill="#D2D6DB"/>
<circle cx="198" cy="114" r="2" fill="#D2D6DB"/>
<circle cx="226" cy="114" r="2" fill="#D2D6DB"/>
<circle cx="254" cy="114" r="2" fill="#D2D6DB"/>
<circle cx="282" cy="114" r="2" fill="#D2D6DB"/>
<circle cx="310" cy="114" r="2" fill="#D2D6DB"/>
<circle cx="338" cy="114" r="2" fill="#D2D6DB"/>
<circle cx="366" cy="114" r="2" fill="#D2D6DB"/>
<circle cx="394" cy="114" r="2" fill="#D2D6DB"/>
<circle cx="422" cy="114" r="2" fill="#D2D6DB"/>
<circle cx="450" cy="114" r="2" fill="#D2D6DB"/>
<circle cx="478" cy="114" r="2" fill="#D2D6DB"/>
<circle cx="506" cy="114" r="2" fill="#D2D6DB"/>
<circle cx="534" cy="114" r="2" fill="#D2D6DB"/>
<circle cx="562" cy="114" r="2" fill="#D2D6DB"/>
<circle cx="590" cy="114" r="2" fill="#D2D6DB"/>
<circle cx="618" cy="114" r="2" fill="#D2D6DB"/>
<circle cx="646" cy="114" r="2" fill="#D2D6DB"/>
<circle cx="674" cy="114" r="2" fill="#D2D6DB"/>
<circle cx="702" cy="114" r="2" fill="#D2D6DB"/>
<circle cx="730" cy="114" r="2" fill="#D2D6DB"/>
<circle cx="758" cy="114" r="2" fill="#D2D6DB"/>
<circle cx="786" cy="114" r="2" fill="#D2D6DB"/>
<circle cx="814" cy="114" r="2" fill="#D2D6DB"/>
<circle cx="842" cy="114" r="2" fill="#D2D6DB"/>
<circle cx="870" cy="114" r="2" fill="#D2D6DB"/>
<circle cx="898" cy="114" r="2" fill="#D2D6DB"/>
<circle cx="926" cy="114" r="2" fill="#D2D6DB"/>
<circle cx="954" cy="114" r="2" fill="#D2D6DB"/>
<circle cx="982" cy="114" r="2" fill="#D2D6DB"/>
<circle cx="1010" cy="114" r="2" fill="#D2D6DB"/>
<circle cx="1038" cy="114" r="2" fill="#D2D6DB"/>
<circle cx="1066" cy="114" r="2" fill="#D2D6DB"/>
<circle cx="1094" cy="114" r="2" fill="#D2D6DB"/>
<circle cx="1122" cy="114" r="2" fill="#D2D6DB"/>
<circle cx="1150" cy="114" r="2" fill="#D2D6DB"/>
<circle cx="1178" cy="114" r="2" fill="#D2D6DB"/>
<circle cx="1206" cy="114" r="2" fill="#D2D6DB"/>
<circle cx="1234" cy="114" r="2" fill="#D2D6DB"/>
<circle cx="2" cy="142" r="2" fill="#D2D6DB"/>
<circle cx="30" cy="142" r="2" fill="#D2D6DB"/>
<circle cx="58" cy="142" r="2" fill="#D2D6DB"/>
<circle cx="86" cy="142" r="2" fill="#D2D6DB"/>
<circle cx="114" cy="142" r="2" fill="#D2D6DB"/>
<circle cx="142" cy="142" r="2" fill="#D2D6DB"/>
<circle cx="170" cy="142" r="2" fill="#D2D6DB"/>
<circle cx="198" cy="142" r="2" fill="#D2D6DB"/>
<circle cx="226" cy="142" r="2" fill="#D2D6DB"/>
<circle cx="254" cy="142" r="2" fill="#D2D6DB"/>
<circle cx="282" cy="142" r="2" fill="#D2D6DB"/>
<circle cx="310" cy="142" r="2" fill="#D2D6DB"/>
<circle cx="338" cy="142" r="2" fill="#D2D6DB"/>
<circle cx="366" cy="142" r="2" fill="#D2D6DB"/>
<circle cx="394" cy="142" r="2" fill="#D2D6DB"/>
<circle cx="422" cy="142" r="2" fill="#D2D6DB"/>
<circle cx="450" cy="142" r="2" fill="#D2D6DB"/>
<circle cx="478" cy="142" r="2" fill="#D2D6DB"/>
<circle cx="506" cy="142" r="2" fill="#D2D6DB"/>
<circle cx="534" cy="142" r="2" fill="#D2D6DB"/>
<circle cx="562" cy="142" r="2" fill="#D2D6DB"/>
<circle cx="590" cy="142" r="2" fill="#D2D6DB"/>
<circle cx="618" cy="142" r="2" fill="#D2D6DB"/>
<circle cx="646" cy="142" r="2" fill="#D2D6DB"/>
<circle cx="674" cy="142" r="2" fill="#D2D6DB"/>
<circle cx="702" cy="142" r="2" fill="#D2D6DB"/>
<circle cx="730" cy="142" r="2" fill="#D2D6DB"/>
<circle cx="758" cy="142" r="2" fill="#D2D6DB"/>
<circle cx="786" cy="142" r="2" fill="#D2D6DB"/>
<circle cx="814" cy="142" r="2" fill="#D2D6DB"/>
<circle cx="842" cy="142" r="2" fill="#D2D6DB"/>
<circle cx="870" cy="142" r="2" fill="#D2D6DB"/>
<circle cx="898" cy="142" r="2" fill="#D2D6DB"/>
<circle cx="926" cy="142" r="2" fill="#D2D6DB"/>
<circle cx="954" cy="142" r="2" fill="#D2D6DB"/>
<circle cx="982" cy="142" r="2" fill="#D2D6DB"/>
<circle cx="1010" cy="142" r="2" fill="#D2D6DB"/>
<circle cx="1038" cy="142" r="2" fill="#D2D6DB"/>
<circle cx="1066" cy="142" r="2" fill="#D2D6DB"/>
<circle cx="1094" cy="142" r="2" fill="#D2D6DB"/>
<circle cx="1122" cy="142" r="2" fill="#D2D6DB"/>
<circle cx="1150" cy="142" r="2" fill="#D2D6DB"/>
<circle cx="1178" cy="142" r="2" fill="#D2D6DB"/>
<circle cx="1206" cy="142" r="2" fill="#D2D6DB"/>
<circle cx="1234" cy="142" r="2" fill="#D2D6DB"/>
<circle cx="2" cy="170" r="2" fill="#D2D6DB"/>
<circle cx="30" cy="170" r="2" fill="#D2D6DB"/>
<circle cx="58" cy="170" r="2" fill="#D2D6DB"/>
<circle cx="86" cy="170" r="2" fill="#D2D6DB"/>
<circle cx="114" cy="170" r="2" fill="#D2D6DB"/>
<circle cx="142" cy="170" r="2" fill="#D2D6DB"/>
<circle cx="170" cy="170" r="2" fill="#D2D6DB"/>
<circle cx="198" cy="170" r="2" fill="#D2D6DB"/>
<circle cx="226" cy="170" r="2" fill="#D2D6DB"/>
<circle cx="254" cy="170" r="2" fill="#D2D6DB"/>
<circle cx="282" cy="170" r="2" fill="#D2D6DB"/>
<circle cx="310" cy="170" r="2" fill="#D2D6DB"/>
<circle cx="338" cy="170" r="2" fill="#D2D6DB"/>
<circle cx="366" cy="170" r="2" fill="#D2D6DB"/>
<circle cx="394" cy="170" r="2" fill="#D2D6DB"/>
<circle cx="422" cy="170" r="2" fill="#D2D6DB"/>
<circle cx="450" cy="170" r="2" fill="#D2D6DB"/>
<circle cx="478" cy="170" r="2" fill="#D2D6DB"/>
<circle cx="506" cy="170" r="2" fill="#D2D6DB"/>
<circle cx="534" cy="170" r="2" fill="#D2D6DB"/>
<circle cx="562" cy="170" r="2" fill="#D2D6DB"/>
<circle cx="590" cy="170" r="2" fill="#D2D6DB"/>
<circle cx="618" cy="170" r="2" fill="#D2D6DB"/>
<circle cx="646" cy="170" r="2" fill="#D2D6DB"/>
<circle cx="674" cy="170" r="2" fill="#D2D6DB"/>
<circle cx="702" cy="170" r="2" fill="#D2D6DB"/>
<circle cx="730" cy="170" r="2" fill="#D2D6DB"/>
<circle cx="758" cy="170" r="2" fill="#D2D6DB"/>
<circle cx="786" cy="170" r="2" fill="#D2D6DB"/>
<circle cx="814" cy="170" r="2" fill="#D2D6DB"/>
<circle cx="842" cy="170" r="2" fill="#D2D6DB"/>
<circle cx="870" cy="170" r="2" fill="#D2D6DB"/>
<circle cx="898" cy="170" r="2" fill="#D2D6DB"/>
<circle cx="926" cy="170" r="2" fill="#D2D6DB"/>
<circle cx="954" cy="170" r="2" fill="#D2D6DB"/>
<circle cx="982" cy="170" r="2" fill="#D2D6DB"/>
<circle cx="1010" cy="170" r="2" fill="#D2D6DB"/>
<circle cx="1038" cy="170" r="2" fill="#D2D6DB"/>
<circle cx="1066" cy="170" r="2" fill="#D2D6DB"/>
<circle cx="1094" cy="170" r="2" fill="#D2D6DB"/>
<circle cx="1122" cy="170" r="2" fill="#D2D6DB"/>
<circle cx="1150" cy="170" r="2" fill="#D2D6DB"/>
<circle cx="1178" cy="170" r="2" fill="#D2D6DB"/>
<circle cx="1206" cy="170" r="2" fill="#D2D6DB"/>
<circle cx="1234" cy="170" r="2" fill="#D2D6DB"/>
<circle cx="2" cy="198" r="2" fill="#D2D6DB"/>
<circle cx="30" cy="198" r="2" fill="#D2D6DB"/>
<circle cx="58" cy="198" r="2" fill="#D2D6DB"/>
<circle cx="86" cy="198" r="2" fill="#D2D6DB"/>
<circle cx="114" cy="198" r="2" fill="#D2D6DB"/>
<circle cx="142" cy="198" r="2" fill="#D2D6DB"/>
<circle cx="170" cy="198" r="2" fill="#D2D6DB"/>
<circle cx="198" cy="198" r="2" fill="#D2D6DB"/>
<circle cx="226" cy="198" r="2" fill="#D2D6DB"/>
<circle cx="254" cy="198" r="2" fill="#D2D6DB"/>
<circle cx="282" cy="198" r="2" fill="#D2D6DB"/>
<circle cx="310" cy="198" r="2" fill="#D2D6DB"/>
<circle cx="338" cy="198" r="2" fill="#D2D6DB"/>
<circle cx="366" cy="198" r="2" fill="#D2D6DB"/>
<circle cx="394" cy="198" r="2" fill="#D2D6DB"/>
<circle cx="422" cy="198" r="2" fill="#D2D6DB"/>
<circle cx="450" cy="198" r="2" fill="#D2D6DB"/>
<circle cx="478" cy="198" r="2" fill="#D2D6DB"/>
<circle cx="506" cy="198" r="2" fill="#D2D6DB"/>
<circle cx="534" cy="198" r="2" fill="#D2D6DB"/>
<circle cx="562" cy="198" r="2" fill="#D2D6DB"/>
<circle cx="590" cy="198" r="2" fill="#D2D6DB"/>
<circle cx="618" cy="198" r="2" fill="#D2D6DB"/>
<circle cx="646" cy="198" r="2" fill="#D2D6DB"/>
<circle cx="674" cy="198" r="2" fill="#D2D6DB"/>
<circle cx="702" cy="198" r="2" fill="#D2D6DB"/>
<circle cx="730" cy="198" r="2" fill="#D2D6DB"/>
<circle cx="758" cy="198" r="2" fill="#D2D6DB"/>
<circle cx="786" cy="198" r="2" fill="#D2D6DB"/>
<circle cx="814" cy="198" r="2" fill="#D2D6DB"/>
<circle cx="842" cy="198" r="2" fill="#D2D6DB"/>
<circle cx="870" cy="198" r="2" fill="#D2D6DB"/>
<circle cx="898" cy="198" r="2" fill="#D2D6DB"/>
<circle cx="926" cy="198" r="2" fill="#D2D6DB"/>
<circle cx="954" cy="198" r="2" fill="#D2D6DB"/>
<circle cx="982" cy="198" r="2" fill="#D2D6DB"/>
<circle cx="1010" cy="198" r="2" fill="#D2D6DB"/>
<circle cx="1038" cy="198" r="2" fill="#D2D6DB"/>
<circle cx="1066" cy="198" r="2" fill="#D2D6DB"/>
<circle cx="1094" cy="198" r="2" fill="#D2D6DB"/>
<circle cx="1122" cy="198" r="2" fill="#D2D6DB"/>
<circle cx="1150" cy="198" r="2" fill="#D2D6DB"/>
<circle cx="1178" cy="198" r="2" fill="#D2D6DB"/>
<circle cx="1206" cy="198" r="2" fill="#D2D6DB"/>
<circle cx="1234" cy="198" r="2" fill="#D2D6DB"/>
<circle cx="2" cy="226" r="2" fill="#D2D6DB"/>
<circle cx="30" cy="226" r="2" fill="#D2D6DB"/>
<circle cx="58" cy="226" r="2" fill="#D2D6DB"/>
<circle cx="86" cy="226" r="2" fill="#D2D6DB"/>
<circle cx="114" cy="226" r="2" fill="#D2D6DB"/>
<circle cx="142" cy="226" r="2" fill="#D2D6DB"/>
<circle cx="170" cy="226" r="2" fill="#D2D6DB"/>
<circle cx="198" cy="226" r="2" fill="#D2D6DB"/>
<circle cx="226" cy="226" r="2" fill="#D2D6DB"/>
<circle cx="254" cy="226" r="2" fill="#D2D6DB"/>
<circle cx="282" cy="226" r="2" fill="#D2D6DB"/>
<circle cx="310" cy="226" r="2" fill="#D2D6DB"/>
<circle cx="338" cy="226" r="2" fill="#D2D6DB"/>
<circle cx="366" cy="226" r="2" fill="#D2D6DB"/>
<circle cx="394" cy="226" r="2" fill="#D2D6DB"/>
<circle cx="422" cy="226" r="2" fill="#D2D6DB"/>
<circle cx="450" cy="226" r="2" fill="#D2D6DB"/>
<circle cx="478" cy="226" r="2" fill="#D2D6DB"/>
<circle cx="506" cy="226" r="2" fill="#D2D6DB"/>
<circle cx="534" cy="226" r="2" fill="#D2D6DB"/>
<circle cx="562" cy="226" r="2" fill="#D2D6DB"/>
<circle cx="590" cy="226" r="2" fill="#D2D6DB"/>
<circle cx="618" cy="226" r="2" fill="#D2D6DB"/>
<circle cx="646" cy="226" r="2" fill="#D2D6DB"/>
<circle cx="674" cy="226" r="2" fill="#D2D6DB"/>
<circle cx="702" cy="226" r="2" fill="#D2D6DB"/>
<circle cx="730" cy="226" r="2" fill="#D2D6DB"/>
<circle cx="758" cy="226" r="2" fill="#D2D6DB"/>
<circle cx="786" cy="226" r="2" fill="#D2D6DB"/>
<circle cx="814" cy="226" r="2" fill="#D2D6DB"/>
<circle cx="842" cy="226" r="2" fill="#D2D6DB"/>
<circle cx="870" cy="226" r="2" fill="#D2D6DB"/>
<circle cx="898" cy="226" r="2" fill="#D2D6DB"/>
<circle cx="926" cy="226" r="2" fill="#D2D6DB"/>
<circle cx="954" cy="226" r="2" fill="#D2D6DB"/>
<circle cx="982" cy="226" r="2" fill="#D2D6DB"/>
<circle cx="1010" cy="226" r="2" fill="#D2D6DB"/>
<circle cx="1038" cy="226" r="2" fill="#D2D6DB"/>
<circle cx="1066" cy="226" r="2" fill="#D2D6DB"/>
<circle cx="1094" cy="226" r="2" fill="#D2D6DB"/>
<circle cx="1122" cy="226" r="2" fill="#D2D6DB"/>
<circle cx="1150" cy="226" r="2" fill="#D2D6DB"/>
<circle cx="1178" cy="226" r="2" fill="#D2D6DB"/>
<circle cx="1206" cy="226" r="2" fill="#D2D6DB"/>
<circle cx="1234" cy="226" r="2" fill="#D2D6DB"/>
<circle cx="2" cy="254" r="2" fill="#D2D6DB"/>
<circle cx="30" cy="254" r="2" fill="#D2D6DB"/>
<circle cx="58" cy="254" r="2" fill="#D2D6DB"/>
<circle cx="86" cy="254" r="2" fill="#D2D6DB"/>
<circle cx="114" cy="254" r="2" fill="#D2D6DB"/>
<circle cx="142" cy="254" r="2" fill="#D2D6DB"/>
<circle cx="170" cy="254" r="2" fill="#D2D6DB"/>
<circle cx="198" cy="254" r="2" fill="#D2D6DB"/>
<circle cx="226" cy="254" r="2" fill="#D2D6DB"/>
<circle cx="254" cy="254" r="2" fill="#D2D6DB"/>
<circle cx="282" cy="254" r="2" fill="#D2D6DB"/>
<circle cx="310" cy="254" r="2" fill="#D2D6DB"/>
<circle cx="338" cy="254" r="2" fill="#D2D6DB"/>
<circle cx="366" cy="254" r="2" fill="#D2D6DB"/>
<circle cx="394" cy="254" r="2" fill="#D2D6DB"/>
<circle cx="422" cy="254" r="2" fill="#D2D6DB"/>
<circle cx="450" cy="254" r="2" fill="#D2D6DB"/>
<circle cx="478" cy="254" r="2" fill="#D2D6DB"/>
<circle cx="506" cy="254" r="2" fill="#D2D6DB"/>
<circle cx="534" cy="254" r="2" fill="#D2D6DB"/>
<circle cx="562" cy="254" r="2" fill="#D2D6DB"/>
<circle cx="590" cy="254" r="2" fill="#D2D6DB"/>
<circle cx="618" cy="254" r="2" fill="#D2D6DB"/>
<circle cx="646" cy="254" r="2" fill="#D2D6DB"/>
<circle cx="674" cy="254" r="2" fill="#D2D6DB"/>
<circle cx="702" cy="254" r="2" fill="#D2D6DB"/>
<circle cx="730" cy="254" r="2" fill="#D2D6DB"/>
<circle cx="758" cy="254" r="2" fill="#D2D6DB"/>
<circle cx="786" cy="254" r="2" fill="#D2D6DB"/>
<circle cx="814" cy="254" r="2" fill="#D2D6DB"/>
<circle cx="842" cy="254" r="2" fill="#D2D6DB"/>
<circle cx="870" cy="254" r="2" fill="#D2D6DB"/>
<circle cx="898" cy="254" r="2" fill="#D2D6DB"/>
<circle cx="926" cy="254" r="2" fill="#D2D6DB"/>
<circle cx="954" cy="254" r="2" fill="#D2D6DB"/>
<circle cx="982" cy="254" r="2" fill="#D2D6DB"/>
<circle cx="1010" cy="254" r="2" fill="#D2D6DB"/>
<circle cx="1038" cy="254" r="2" fill="#D2D6DB"/>
<circle cx="1066" cy="254" r="2" fill="#D2D6DB"/>
<circle cx="1094" cy="254" r="2" fill="#D2D6DB"/>
<circle cx="1122" cy="254" r="2" fill="#D2D6DB"/>
<circle cx="1150" cy="254" r="2" fill="#D2D6DB"/>
<circle cx="1178" cy="254" r="2" fill="#D2D6DB"/>
<circle cx="1206" cy="254" r="2" fill="#D2D6DB"/>
<circle cx="1234" cy="254" r="2" fill="#D2D6DB"/>
<circle cx="2" cy="282" r="2" fill="#D2D6DB"/>
<circle cx="30" cy="282" r="2" fill="#D2D6DB"/>
<circle cx="58" cy="282" r="2" fill="#D2D6DB"/>
<circle cx="86" cy="282" r="2" fill="#D2D6DB"/>
<circle cx="114" cy="282" r="2" fill="#D2D6DB"/>
<circle cx="142" cy="282" r="2" fill="#D2D6DB"/>
<circle cx="170" cy="282" r="2" fill="#D2D6DB"/>
<circle cx="198" cy="282" r="2" fill="#D2D6DB"/>
<circle cx="226" cy="282" r="2" fill="#D2D6DB"/>
<circle cx="254" cy="282" r="2" fill="#D2D6DB"/>
<circle cx="282" cy="282" r="2" fill="#D2D6DB"/>
<circle cx="310" cy="282" r="2" fill="#D2D6DB"/>
<circle cx="338" cy="282" r="2" fill="#D2D6DB"/>
<circle cx="366" cy="282" r="2" fill="#D2D6DB"/>
<circle cx="394" cy="282" r="2" fill="#D2D6DB"/>
<circle cx="422" cy="282" r="2" fill="#D2D6DB"/>
<circle cx="450" cy="282" r="2" fill="#D2D6DB"/>
<circle cx="478" cy="282" r="2" fill="#D2D6DB"/>
<circle cx="506" cy="282" r="2" fill="#D2D6DB"/>
<circle cx="534" cy="282" r="2" fill="#D2D6DB"/>
<circle cx="562" cy="282" r="2" fill="#D2D6DB"/>
<circle cx="590" cy="282" r="2" fill="#D2D6DB"/>
<circle cx="618" cy="282" r="2" fill="#D2D6DB"/>
<circle cx="646" cy="282" r="2" fill="#D2D6DB"/>
<circle cx="674" cy="282" r="2" fill="#D2D6DB"/>
<circle cx="702" cy="282" r="2" fill="#D2D6DB"/>
<circle cx="730" cy="282" r="2" fill="#D2D6DB"/>
<circle cx="758" cy="282" r="2" fill="#D2D6DB"/>
<circle cx="786" cy="282" r="2" fill="#D2D6DB"/>
<circle cx="814" cy="282" r="2" fill="#D2D6DB"/>
<circle cx="842" cy="282" r="2" fill="#D2D6DB"/>
<circle cx="870" cy="282" r="2" fill="#D2D6DB"/>
<circle cx="898" cy="282" r="2" fill="#D2D6DB"/>
<circle cx="926" cy="282" r="2" fill="#D2D6DB"/>
<circle cx="954" cy="282" r="2" fill="#D2D6DB"/>
<circle cx="982" cy="282" r="2" fill="#D2D6DB"/>
<circle cx="1010" cy="282" r="2" fill="#D2D6DB"/>
<circle cx="1038" cy="282" r="2" fill="#D2D6DB"/>
<circle cx="1066" cy="282" r="2" fill="#D2D6DB"/>
<circle cx="1094" cy="282" r="2" fill="#D2D6DB"/>
<circle cx="1122" cy="282" r="2" fill="#D2D6DB"/>
<circle cx="1150" cy="282" r="2" fill="#D2D6DB"/>
<circle cx="1178" cy="282" r="2" fill="#D2D6DB"/>
<circle cx="1206" cy="282" r="2" fill="#D2D6DB"/>
<circle cx="1234" cy="282" r="2" fill="#D2D6DB"/>
<circle cx="2" cy="310" r="2" fill="#D2D6DB"/>
<circle cx="30" cy="310" r="2" fill="#D2D6DB"/>
<circle cx="58" cy="310" r="2" fill="#D2D6DB"/>
<circle cx="86" cy="310" r="2" fill="#D2D6DB"/>
<circle cx="114" cy="310" r="2" fill="#D2D6DB"/>
<circle cx="142" cy="310" r="2" fill="#D2D6DB"/>
<circle cx="170" cy="310" r="2" fill="#D2D6DB"/>
<circle cx="198" cy="310" r="2" fill="#D2D6DB"/>
<circle cx="226" cy="310" r="2" fill="#D2D6DB"/>
<circle cx="254" cy="310" r="2" fill="#D2D6DB"/>
<circle cx="282" cy="310" r="2" fill="#D2D6DB"/>
<circle cx="310" cy="310" r="2" fill="#D2D6DB"/>
<circle cx="338" cy="310" r="2" fill="#D2D6DB"/>
<circle cx="366" cy="310" r="2" fill="#D2D6DB"/>
<circle cx="394" cy="310" r="2" fill="#D2D6DB"/>
<circle cx="422" cy="310" r="2" fill="#D2D6DB"/>
<circle cx="450" cy="310" r="2" fill="#D2D6DB"/>
<circle cx="478" cy="310" r="2" fill="#D2D6DB"/>
<circle cx="506" cy="310" r="2" fill="#D2D6DB"/>
<circle cx="534" cy="310" r="2" fill="#D2D6DB"/>
<circle cx="562" cy="310" r="2" fill="#D2D6DB"/>
<circle cx="590" cy="310" r="2" fill="#D2D6DB"/>
<circle cx="618" cy="310" r="2" fill="#D2D6DB"/>
<circle cx="646" cy="310" r="2" fill="#D2D6DB"/>
<circle cx="674" cy="310" r="2" fill="#D2D6DB"/>
<circle cx="702" cy="310" r="2" fill="#D2D6DB"/>
<circle cx="730" cy="310" r="2" fill="#D2D6DB"/>
<circle cx="758" cy="310" r="2" fill="#D2D6DB"/>
<circle cx="786" cy="310" r="2" fill="#D2D6DB"/>
<circle cx="814" cy="310" r="2" fill="#D2D6DB"/>
<circle cx="842" cy="310" r="2" fill="#D2D6DB"/>
<circle cx="870" cy="310" r="2" fill="#D2D6DB"/>
<circle cx="898" cy="310" r="2" fill="#D2D6DB"/>
<circle cx="926" cy="310" r="2" fill="#D2D6DB"/>
<circle cx="954" cy="310" r="2" fill="#D2D6DB"/>
<circle cx="982" cy="310" r="2" fill="#D2D6DB"/>
<circle cx="1010" cy="310" r="2" fill="#D2D6DB"/>
<circle cx="1038" cy="310" r="2" fill="#D2D6DB"/>
<circle cx="1066" cy="310" r="2" fill="#D2D6DB"/>
<circle cx="1094" cy="310" r="2" fill="#D2D6DB"/>
<circle cx="1122" cy="310" r="2" fill="#D2D6DB"/>
<circle cx="1150" cy="310" r="2" fill="#D2D6DB"/>
<circle cx="1178" cy="310" r="2" fill="#D2D6DB"/>
<circle cx="1206" cy="310" r="2" fill="#D2D6DB"/>
<circle cx="1234" cy="310" r="2" fill="#D2D6DB"/>
<circle cx="2" cy="338" r="2" fill="#D2D6DB"/>
<circle cx="30" cy="338" r="2" fill="#D2D6DB"/>
<circle cx="58" cy="338" r="2" fill="#D2D6DB"/>
<circle cx="86" cy="338" r="2" fill="#D2D6DB"/>
<circle cx="114" cy="338" r="2" fill="#D2D6DB"/>
<circle cx="142" cy="338" r="2" fill="#D2D6DB"/>
<circle cx="170" cy="338" r="2" fill="#D2D6DB"/>
<circle cx="198" cy="338" r="2" fill="#D2D6DB"/>
<circle cx="226" cy="338" r="2" fill="#D2D6DB"/>
<circle cx="254" cy="338" r="2" fill="#D2D6DB"/>
<circle cx="282" cy="338" r="2" fill="#D2D6DB"/>
<circle cx="310" cy="338" r="2" fill="#D2D6DB"/>
<circle cx="338" cy="338" r="2" fill="#D2D6DB"/>
<circle cx="366" cy="338" r="2" fill="#D2D6DB"/>
<circle cx="394" cy="338" r="2" fill="#D2D6DB"/>
<circle cx="422" cy="338" r="2" fill="#D2D6DB"/>
<circle cx="450" cy="338" r="2" fill="#D2D6DB"/>
<circle cx="478" cy="338" r="2" fill="#D2D6DB"/>
<circle cx="506" cy="338" r="2" fill="#D2D6DB"/>
<circle cx="534" cy="338" r="2" fill="#D2D6DB"/>
<circle cx="562" cy="338" r="2" fill="#D2D6DB"/>
<circle cx="590" cy="338" r="2" fill="#D2D6DB"/>
<circle cx="618" cy="338" r="2" fill="#D2D6DB"/>
<circle cx="646" cy="338" r="2" fill="#D2D6DB"/>
<circle cx="674" cy="338" r="2" fill="#D2D6DB"/>
<circle cx="702" cy="338" r="2" fill="#D2D6DB"/>
<circle cx="730" cy="338" r="2" fill="#D2D6DB"/>
<circle cx="758" cy="338" r="2" fill="#D2D6DB"/>
<circle cx="786" cy="338" r="2" fill="#D2D6DB"/>
<circle cx="814" cy="338" r="2" fill="#D2D6DB"/>
<circle cx="842" cy="338" r="2" fill="#D2D6DB"/>
<circle cx="870" cy="338" r="2" fill="#D2D6DB"/>
<circle cx="898" cy="338" r="2" fill="#D2D6DB"/>
<circle cx="926" cy="338" r="2" fill="#D2D6DB"/>
<circle cx="954" cy="338" r="2" fill="#D2D6DB"/>
<circle cx="982" cy="338" r="2" fill="#D2D6DB"/>
<circle cx="1010" cy="338" r="2" fill="#D2D6DB"/>
<circle cx="1038" cy="338" r="2" fill="#D2D6DB"/>
<circle cx="1066" cy="338" r="2" fill="#D2D6DB"/>
<circle cx="1094" cy="338" r="2" fill="#D2D6DB"/>
<circle cx="1122" cy="338" r="2" fill="#D2D6DB"/>
<circle cx="1150" cy="338" r="2" fill="#D2D6DB"/>
<circle cx="1178" cy="338" r="2" fill="#D2D6DB"/>
<circle cx="1206" cy="338" r="2" fill="#D2D6DB"/>
<circle cx="1234" cy="338" r="2" fill="#D2D6DB"/>
<circle cx="2" cy="366" r="2" fill="#D2D6DB"/>
<circle cx="30" cy="366" r="2" fill="#D2D6DB"/>
<circle cx="58" cy="366" r="2" fill="#D2D6DB"/>
<circle cx="86" cy="366" r="2" fill="#D2D6DB"/>
<circle cx="114" cy="366" r="2" fill="#D2D6DB"/>
<circle cx="142" cy="366" r="2" fill="#D2D6DB"/>
<circle cx="170" cy="366" r="2" fill="#D2D6DB"/>
<circle cx="198" cy="366" r="2" fill="#D2D6DB"/>
<circle cx="226" cy="366" r="2" fill="#D2D6DB"/>
<circle cx="254" cy="366" r="2" fill="#D2D6DB"/>
<circle cx="282" cy="366" r="2" fill="#D2D6DB"/>
<circle cx="310" cy="366" r="2" fill="#D2D6DB"/>
<circle cx="338" cy="366" r="2" fill="#D2D6DB"/>
<circle cx="366" cy="366" r="2" fill="#D2D6DB"/>
<circle cx="394" cy="366" r="2" fill="#D2D6DB"/>
<circle cx="422" cy="366" r="2" fill="#D2D6DB"/>
<circle cx="450" cy="366" r="2" fill="#D2D6DB"/>
<circle cx="478" cy="366" r="2" fill="#D2D6DB"/>
<circle cx="506" cy="366" r="2" fill="#D2D6DB"/>
<circle cx="534" cy="366" r="2" fill="#D2D6DB"/>
<circle cx="562" cy="366" r="2" fill="#D2D6DB"/>
<circle cx="590" cy="366" r="2" fill="#D2D6DB"/>
<circle cx="618" cy="366" r="2" fill="#D2D6DB"/>
<circle cx="646" cy="366" r="2" fill="#D2D6DB"/>
<circle cx="674" cy="366" r="2" fill="#D2D6DB"/>
<circle cx="702" cy="366" r="2" fill="#D2D6DB"/>
<circle cx="730" cy="366" r="2" fill="#D2D6DB"/>
<circle cx="758" cy="366" r="2" fill="#D2D6DB"/>
<circle cx="786" cy="366" r="2" fill="#D2D6DB"/>
<circle cx="814" cy="366" r="2" fill="#D2D6DB"/>
<circle cx="842" cy="366" r="2" fill="#D2D6DB"/>
<circle cx="870" cy="366" r="2" fill="#D2D6DB"/>
<circle cx="898" cy="366" r="2" fill="#D2D6DB"/>
<circle cx="926" cy="366" r="2" fill="#D2D6DB"/>
<circle cx="954" cy="366" r="2" fill="#D2D6DB"/>
<circle cx="982" cy="366" r="2" fill="#D2D6DB"/>
<circle cx="1010" cy="366" r="2" fill="#D2D6DB"/>
<circle cx="1038" cy="366" r="2" fill="#D2D6DB"/>
<circle cx="1066" cy="366" r="2" fill="#D2D6DB"/>
<circle cx="1094" cy="366" r="2" fill="#D2D6DB"/>
<circle cx="1122" cy="366" r="2" fill="#D2D6DB"/>
<circle cx="1150" cy="366" r="2" fill="#D2D6DB"/>
<circle cx="1178" cy="366" r="2" fill="#D2D6DB"/>
<circle cx="1206" cy="366" r="2" fill="#D2D6DB"/>
<circle cx="1234" cy="366" r="2" fill="#D2D6DB"/>
<circle cx="2" cy="394" r="2" fill="#D2D6DB"/>
<circle cx="30" cy="394" r="2" fill="#D2D6DB"/>
<circle cx="58" cy="394" r="2" fill="#D2D6DB"/>
<circle cx="86" cy="394" r="2" fill="#D2D6DB"/>
<circle cx="114" cy="394" r="2" fill="#D2D6DB"/>
<circle cx="142" cy="394" r="2" fill="#D2D6DB"/>
<circle cx="170" cy="394" r="2" fill="#D2D6DB"/>
<circle cx="198" cy="394" r="2" fill="#D2D6DB"/>
<circle cx="226" cy="394" r="2" fill="#D2D6DB"/>
<circle cx="254" cy="394" r="2" fill="#D2D6DB"/>
<circle cx="282" cy="394" r="2" fill="#D2D6DB"/>
<circle cx="310" cy="394" r="2" fill="#D2D6DB"/>
<circle cx="338" cy="394" r="2" fill="#D2D6DB"/>
<circle cx="366" cy="394" r="2" fill="#D2D6DB"/>
<circle cx="394" cy="394" r="2" fill="#D2D6DB"/>
<circle cx="422" cy="394" r="2" fill="#D2D6DB"/>
<circle cx="450" cy="394" r="2" fill="#D2D6DB"/>
<circle cx="478" cy="394" r="2" fill="#D2D6DB"/>
<circle cx="506" cy="394" r="2" fill="#D2D6DB"/>
<circle cx="534" cy="394" r="2" fill="#D2D6DB"/>
<circle cx="562" cy="394" r="2" fill="#D2D6DB"/>
<circle cx="590" cy="394" r="2" fill="#D2D6DB"/>
<circle cx="618" cy="394" r="2" fill="#D2D6DB"/>
<circle cx="646" cy="394" r="2" fill="#D2D6DB"/>
<circle cx="674" cy="394" r="2" fill="#D2D6DB"/>
<circle cx="702" cy="394" r="2" fill="#D2D6DB"/>
<circle cx="730" cy="394" r="2" fill="#D2D6DB"/>
<circle cx="758" cy="394" r="2" fill="#D2D6DB"/>
<circle cx="786" cy="394" r="2" fill="#D2D6DB"/>
<circle cx="814" cy="394" r="2" fill="#D2D6DB"/>
<circle cx="842" cy="394" r="2" fill="#D2D6DB"/>
<circle cx="870" cy="394" r="2" fill="#D2D6DB"/>
<circle cx="898" cy="394" r="2" fill="#D2D6DB"/>
<circle cx="926" cy="394" r="2" fill="#D2D6DB"/>
<circle cx="954" cy="394" r="2" fill="#D2D6DB"/>
<circle cx="982" cy="394" r="2" fill="#D2D6DB"/>
<circle cx="1010" cy="394" r="2" fill="#D2D6DB"/>
<circle cx="1038" cy="394" r="2" fill="#D2D6DB"/>
<circle cx="1066" cy="394" r="2" fill="#D2D6DB"/>
<circle cx="1094" cy="394" r="2" fill="#D2D6DB"/>
<circle cx="1122" cy="394" r="2" fill="#D2D6DB"/>
<circle cx="1150" cy="394" r="2" fill="#D2D6DB"/>
<circle cx="1178" cy="394" r="2" fill="#D2D6DB"/>
<circle cx="1206" cy="394" r="2" fill="#D2D6DB"/>
<circle cx="1234" cy="394" r="2" fill="#D2D6DB"/>
<circle cx="2" cy="422" r="2" fill="#D2D6DB"/>
<circle cx="30" cy="422" r="2" fill="#D2D6DB"/>
<circle cx="58" cy="422" r="2" fill="#D2D6DB"/>
<circle cx="86" cy="422" r="2" fill="#D2D6DB"/>
<circle cx="114" cy="422" r="2" fill="#D2D6DB"/>
<circle cx="142" cy="422" r="2" fill="#D2D6DB"/>
<circle cx="170" cy="422" r="2" fill="#D2D6DB"/>
<circle cx="198" cy="422" r="2" fill="#D2D6DB"/>
<circle cx="226" cy="422" r="2" fill="#D2D6DB"/>
<circle cx="254" cy="422" r="2" fill="#D2D6DB"/>
<circle cx="282" cy="422" r="2" fill="#D2D6DB"/>
<circle cx="310" cy="422" r="2" fill="#D2D6DB"/>
<circle cx="338" cy="422" r="2" fill="#D2D6DB"/>
<circle cx="366" cy="422" r="2" fill="#D2D6DB"/>
<circle cx="394" cy="422" r="2" fill="#D2D6DB"/>
<circle cx="422" cy="422" r="2" fill="#D2D6DB"/>
<circle cx="450" cy="422" r="2" fill="#D2D6DB"/>
<circle cx="478" cy="422" r="2" fill="#D2D6DB"/>
<circle cx="506" cy="422" r="2" fill="#D2D6DB"/>
<circle cx="534" cy="422" r="2" fill="#D2D6DB"/>
<circle cx="562" cy="422" r="2" fill="#D2D6DB"/>
<circle cx="590" cy="422" r="2" fill="#D2D6DB"/>
<circle cx="618" cy="422" r="2" fill="#D2D6DB"/>
<circle cx="646" cy="422" r="2" fill="#D2D6DB"/>
<circle cx="674" cy="422" r="2" fill="#D2D6DB"/>
<circle cx="702" cy="422" r="2" fill="#D2D6DB"/>
<circle cx="730" cy="422" r="2" fill="#D2D6DB"/>
<circle cx="758" cy="422" r="2" fill="#D2D6DB"/>
<circle cx="786" cy="422" r="2" fill="#D2D6DB"/>
<circle cx="814" cy="422" r="2" fill="#D2D6DB"/>
<circle cx="842" cy="422" r="2" fill="#D2D6DB"/>
<circle cx="870" cy="422" r="2" fill="#D2D6DB"/>
<circle cx="898" cy="422" r="2" fill="#D2D6DB"/>
<circle cx="926" cy="422" r="2" fill="#D2D6DB"/>
<circle cx="954" cy="422" r="2" fill="#D2D6DB"/>
<circle cx="982" cy="422" r="2" fill="#D2D6DB"/>
<circle cx="1010" cy="422" r="2" fill="#D2D6DB"/>
<circle cx="1038" cy="422" r="2" fill="#D2D6DB"/>
<circle cx="1066" cy="422" r="2" fill="#D2D6DB"/>
<circle cx="1094" cy="422" r="2" fill="#D2D6DB"/>
<circle cx="1122" cy="422" r="2" fill="#D2D6DB"/>
<circle cx="1150" cy="422" r="2" fill="#D2D6DB"/>
<circle cx="1178" cy="422" r="2" fill="#D2D6DB"/>
<circle cx="1206" cy="422" r="2" fill="#D2D6DB"/>
<circle cx="1234" cy="422" r="2" fill="#D2D6DB"/>
<circle cx="2" cy="450" r="2" fill="#D2D6DB"/>
<circle cx="30" cy="450" r="2" fill="#D2D6DB"/>
<circle cx="58" cy="450" r="2" fill="#D2D6DB"/>
<circle cx="86" cy="450" r="2" fill="#D2D6DB"/>
<circle cx="114" cy="450" r="2" fill="#D2D6DB"/>
<circle cx="142" cy="450" r="2" fill="#D2D6DB"/>
<circle cx="170" cy="450" r="2" fill="#D2D6DB"/>
<circle cx="198" cy="450" r="2" fill="#D2D6DB"/>
<circle cx="226" cy="450" r="2" fill="#D2D6DB"/>
<circle cx="254" cy="450" r="2" fill="#D2D6DB"/>
<circle cx="282" cy="450" r="2" fill="#D2D6DB"/>
<circle cx="310" cy="450" r="2" fill="#D2D6DB"/>
<circle cx="338" cy="450" r="2" fill="#D2D6DB"/>
<circle cx="366" cy="450" r="2" fill="#D2D6DB"/>
<circle cx="394" cy="450" r="2" fill="#D2D6DB"/>
<circle cx="422" cy="450" r="2" fill="#D2D6DB"/>
<circle cx="450" cy="450" r="2" fill="#D2D6DB"/>
<circle cx="478" cy="450" r="2" fill="#D2D6DB"/>
<circle cx="506" cy="450" r="2" fill="#D2D6DB"/>
<circle cx="534" cy="450" r="2" fill="#D2D6DB"/>
<circle cx="562" cy="450" r="2" fill="#D2D6DB"/>
<circle cx="590" cy="450" r="2" fill="#D2D6DB"/>
<circle cx="618" cy="450" r="2" fill="#D2D6DB"/>
<circle cx="646" cy="450" r="2" fill="#D2D6DB"/>
<circle cx="674" cy="450" r="2" fill="#D2D6DB"/>
<circle cx="702" cy="450" r="2" fill="#D2D6DB"/>
<circle cx="730" cy="450" r="2" fill="#D2D6DB"/>
<circle cx="758" cy="450" r="2" fill="#D2D6DB"/>
<circle cx="786" cy="450" r="2" fill="#D2D6DB"/>
<circle cx="814" cy="450" r="2" fill="#D2D6DB"/>
<circle cx="842" cy="450" r="2" fill="#D2D6DB"/>
<circle cx="870" cy="450" r="2" fill="#D2D6DB"/>
<circle cx="898" cy="450" r="2" fill="#D2D6DB"/>
<circle cx="926" cy="450" r="2" fill="#D2D6DB"/>
<circle cx="954" cy="450" r="2" fill="#D2D6DB"/>
<circle cx="982" cy="450" r="2" fill="#D2D6DB"/>
<circle cx="1010" cy="450" r="2" fill="#D2D6DB"/>
<circle cx="1038" cy="450" r="2" fill="#D2D6DB"/>
<circle cx="1066" cy="450" r="2" fill="#D2D6DB"/>
<circle cx="1094" cy="450" r="2" fill="#D2D6DB"/>
<circle cx="1122" cy="450" r="2" fill="#D2D6DB"/>
<circle cx="1150" cy="450" r="2" fill="#D2D6DB"/>
<circle cx="1178" cy="450" r="2" fill="#D2D6DB"/>
<circle cx="1206" cy="450" r="2" fill="#D2D6DB"/>
<circle cx="1234" cy="450" r="2" fill="#D2D6DB"/>
<circle cx="2" cy="478" r="2" fill="#D2D6DB"/>
<circle cx="30" cy="478" r="2" fill="#D2D6DB"/>
<circle cx="58" cy="478" r="2" fill="#D2D6DB"/>
<circle cx="86" cy="478" r="2" fill="#D2D6DB"/>
<circle cx="114" cy="478" r="2" fill="#D2D6DB"/>
<circle cx="142" cy="478" r="2" fill="#D2D6DB"/>
<circle cx="170" cy="478" r="2" fill="#D2D6DB"/>
<circle cx="198" cy="478" r="2" fill="#D2D6DB"/>
<circle cx="226" cy="478" r="2" fill="#D2D6DB"/>
<circle cx="254" cy="478" r="2" fill="#D2D6DB"/>
<circle cx="282" cy="478" r="2" fill="#D2D6DB"/>
<circle cx="310" cy="478" r="2" fill="#D2D6DB"/>
<circle cx="338" cy="478" r="2" fill="#D2D6DB"/>
<circle cx="366" cy="478" r="2" fill="#D2D6DB"/>
<circle cx="394" cy="478" r="2" fill="#D2D6DB"/>
<circle cx="422" cy="478" r="2" fill="#D2D6DB"/>
<circle cx="450" cy="478" r="2" fill="#D2D6DB"/>
<circle cx="478" cy="478" r="2" fill="#D2D6DB"/>
<circle cx="506" cy="478" r="2" fill="#D2D6DB"/>
<circle cx="534" cy="478" r="2" fill="#D2D6DB"/>
<circle cx="562" cy="478" r="2" fill="#D2D6DB"/>
<circle cx="590" cy="478" r="2" fill="#D2D6DB"/>
<circle cx="618" cy="478" r="2" fill="#D2D6DB"/>
<circle cx="646" cy="478" r="2" fill="#D2D6DB"/>
<circle cx="674" cy="478" r="2" fill="#D2D6DB"/>
<circle cx="702" cy="478" r="2" fill="#D2D6DB"/>
<circle cx="730" cy="478" r="2" fill="#D2D6DB"/>
<circle cx="758" cy="478" r="2" fill="#D2D6DB"/>
<circle cx="786" cy="478" r="2" fill="#D2D6DB"/>
<circle cx="814" cy="478" r="2" fill="#D2D6DB"/>
<circle cx="842" cy="478" r="2" fill="#D2D6DB"/>
<circle cx="870" cy="478" r="2" fill="#D2D6DB"/>
<circle cx="898" cy="478" r="2" fill="#D2D6DB"/>
<circle cx="926" cy="478" r="2" fill="#D2D6DB"/>
<circle cx="954" cy="478" r="2" fill="#D2D6DB"/>
<circle cx="982" cy="478" r="2" fill="#D2D6DB"/>
<circle cx="1010" cy="478" r="2" fill="#D2D6DB"/>
<circle cx="1038" cy="478" r="2" fill="#D2D6DB"/>
<circle cx="1066" cy="478" r="2" fill="#D2D6DB"/>
<circle cx="1094" cy="478" r="2" fill="#D2D6DB"/>
<circle cx="1122" cy="478" r="2" fill="#D2D6DB"/>
<circle cx="1150" cy="478" r="2" fill="#D2D6DB"/>
<circle cx="1178" cy="478" r="2" fill="#D2D6DB"/>
<circle cx="1206" cy="478" r="2" fill="#D2D6DB"/>
<circle cx="1234" cy="478" r="2" fill="#D2D6DB"/>
<circle cx="2" cy="506" r="2" fill="#D2D6DB"/>
<circle cx="30" cy="506" r="2" fill="#D2D6DB"/>
<circle cx="58" cy="506" r="2" fill="#D2D6DB"/>
<circle cx="86" cy="506" r="2" fill="#D2D6DB"/>
<circle cx="114" cy="506" r="2" fill="#D2D6DB"/>
<circle cx="142" cy="506" r="2" fill="#D2D6DB"/>
<circle cx="170" cy="506" r="2" fill="#D2D6DB"/>
<circle cx="198" cy="506" r="2" fill="#D2D6DB"/>
<circle cx="226" cy="506" r="2" fill="#D2D6DB"/>
<circle cx="254" cy="506" r="2" fill="#D2D6DB"/>
<circle cx="282" cy="506" r="2" fill="#D2D6DB"/>
<circle cx="310" cy="506" r="2" fill="#D2D6DB"/>
<circle cx="338" cy="506" r="2" fill="#D2D6DB"/>
<circle cx="366" cy="506" r="2" fill="#D2D6DB"/>
<circle cx="394" cy="506" r="2" fill="#D2D6DB"/>
<circle cx="422" cy="506" r="2" fill="#D2D6DB"/>
<circle cx="450" cy="506" r="2" fill="#D2D6DB"/>
<circle cx="478" cy="506" r="2" fill="#D2D6DB"/>
<circle cx="506" cy="506" r="2" fill="#D2D6DB"/>
<circle cx="534" cy="506" r="2" fill="#D2D6DB"/>
<circle cx="562" cy="506" r="2" fill="#D2D6DB"/>
<circle cx="590" cy="506" r="2" fill="#D2D6DB"/>
<circle cx="618" cy="506" r="2" fill="#D2D6DB"/>
<circle cx="646" cy="506" r="2" fill="#D2D6DB"/>
<circle cx="674" cy="506" r="2" fill="#D2D6DB"/>
<circle cx="702" cy="506" r="2" fill="#D2D6DB"/>
<circle cx="730" cy="506" r="2" fill="#D2D6DB"/>
<circle cx="758" cy="506" r="2" fill="#D2D6DB"/>
<circle cx="786" cy="506" r="2" fill="#D2D6DB"/>
<circle cx="814" cy="506" r="2" fill="#D2D6DB"/>
<circle cx="842" cy="506" r="2" fill="#D2D6DB"/>
<circle cx="870" cy="506" r="2" fill="#D2D6DB"/>
<circle cx="898" cy="506" r="2" fill="#D2D6DB"/>
<circle cx="926" cy="506" r="2" fill="#D2D6DB"/>
<circle cx="954" cy="506" r="2" fill="#D2D6DB"/>
<circle cx="982" cy="506" r="2" fill="#D2D6DB"/>
<circle cx="1010" cy="506" r="2" fill="#D2D6DB"/>
<circle cx="1038" cy="506" r="2" fill="#D2D6DB"/>
<circle cx="1066" cy="506" r="2" fill="#D2D6DB"/>
<circle cx="1094" cy="506" r="2" fill="#D2D6DB"/>
<circle cx="1122" cy="506" r="2" fill="#D2D6DB"/>
<circle cx="1150" cy="506" r="2" fill="#D2D6DB"/>
<circle cx="1178" cy="506" r="2" fill="#D2D6DB"/>
<circle cx="1206" cy="506" r="2" fill="#D2D6DB"/>
<circle cx="1234" cy="506" r="2" fill="#D2D6DB"/>
<circle cx="2" cy="534" r="2" fill="#D2D6DB"/>
<circle cx="30" cy="534" r="2" fill="#D2D6DB"/>
<circle cx="58" cy="534" r="2" fill="#D2D6DB"/>
<circle cx="86" cy="534" r="2" fill="#D2D6DB"/>
<circle cx="114" cy="534" r="2" fill="#D2D6DB"/>
<circle cx="142" cy="534" r="2" fill="#D2D6DB"/>
<circle cx="170" cy="534" r="2" fill="#D2D6DB"/>
<circle cx="198" cy="534" r="2" fill="#D2D6DB"/>
<circle cx="226" cy="534" r="2" fill="#D2D6DB"/>
<circle cx="254" cy="534" r="2" fill="#D2D6DB"/>
<circle cx="282" cy="534" r="2" fill="#D2D6DB"/>
<circle cx="310" cy="534" r="2" fill="#D2D6DB"/>
<circle cx="338" cy="534" r="2" fill="#D2D6DB"/>
<circle cx="366" cy="534" r="2" fill="#D2D6DB"/>
<circle cx="394" cy="534" r="2" fill="#D2D6DB"/>
<circle cx="422" cy="534" r="2" fill="#D2D6DB"/>
<circle cx="450" cy="534" r="2" fill="#D2D6DB"/>
<circle cx="478" cy="534" r="2" fill="#D2D6DB"/>
<circle cx="506" cy="534" r="2" fill="#D2D6DB"/>
<circle cx="534" cy="534" r="2" fill="#D2D6DB"/>
<circle cx="562" cy="534" r="2" fill="#D2D6DB"/>
<circle cx="590" cy="534" r="2" fill="#D2D6DB"/>
<circle cx="618" cy="534" r="2" fill="#D2D6DB"/>
<circle cx="646" cy="534" r="2" fill="#D2D6DB"/>
<circle cx="674" cy="534" r="2" fill="#D2D6DB"/>
<circle cx="702" cy="534" r="2" fill="#D2D6DB"/>
<circle cx="730" cy="534" r="2" fill="#D2D6DB"/>
<circle cx="758" cy="534" r="2" fill="#D2D6DB"/>
<circle cx="786" cy="534" r="2" fill="#D2D6DB"/>
<circle cx="814" cy="534" r="2" fill="#D2D6DB"/>
<circle cx="842" cy="534" r="2" fill="#D2D6DB"/>
<circle cx="870" cy="534" r="2" fill="#D2D6DB"/>
<circle cx="898" cy="534" r="2" fill="#D2D6DB"/>
<circle cx="926" cy="534" r="2" fill="#D2D6DB"/>
<circle cx="954" cy="534" r="2" fill="#D2D6DB"/>
<circle cx="982" cy="534" r="2" fill="#D2D6DB"/>
<circle cx="1010" cy="534" r="2" fill="#D2D6DB"/>
<circle cx="1038" cy="534" r="2" fill="#D2D6DB"/>
<circle cx="1066" cy="534" r="2" fill="#D2D6DB"/>
<circle cx="1094" cy="534" r="2" fill="#D2D6DB"/>
<circle cx="1122" cy="534" r="2" fill="#D2D6DB"/>
<circle cx="1150" cy="534" r="2" fill="#D2D6DB"/>
<circle cx="1178" cy="534" r="2" fill="#D2D6DB"/>
<circle cx="1206" cy="534" r="2" fill="#D2D6DB"/>
<circle cx="1234" cy="534" r="2" fill="#D2D6DB"/>
<circle cx="2" cy="562" r="2" fill="#D2D6DB"/>
<circle cx="30" cy="562" r="2" fill="#D2D6DB"/>
<circle cx="58" cy="562" r="2" fill="#D2D6DB"/>
<circle cx="86" cy="562" r="2" fill="#D2D6DB"/>
<circle cx="114" cy="562" r="2" fill="#D2D6DB"/>
<circle cx="142" cy="562" r="2" fill="#D2D6DB"/>
<circle cx="170" cy="562" r="2" fill="#D2D6DB"/>
<circle cx="198" cy="562" r="2" fill="#D2D6DB"/>
<circle cx="226" cy="562" r="2" fill="#D2D6DB"/>
<circle cx="254" cy="562" r="2" fill="#D2D6DB"/>
<circle cx="282" cy="562" r="2" fill="#D2D6DB"/>
<circle cx="310" cy="562" r="2" fill="#D2D6DB"/>
<circle cx="338" cy="562" r="2" fill="#D2D6DB"/>
<circle cx="366" cy="562" r="2" fill="#D2D6DB"/>
<circle cx="394" cy="562" r="2" fill="#D2D6DB"/>
<circle cx="422" cy="562" r="2" fill="#D2D6DB"/>
<circle cx="450" cy="562" r="2" fill="#D2D6DB"/>
<circle cx="478" cy="562" r="2" fill="#D2D6DB"/>
<circle cx="506" cy="562" r="2" fill="#D2D6DB"/>
<circle cx="534" cy="562" r="2" fill="#D2D6DB"/>
<circle cx="562" cy="562" r="2" fill="#D2D6DB"/>
<circle cx="590" cy="562" r="2" fill="#D2D6DB"/>
<circle cx="618" cy="562" r="2" fill="#D2D6DB"/>
<circle cx="646" cy="562" r="2" fill="#D2D6DB"/>
<circle cx="674" cy="562" r="2" fill="#D2D6DB"/>
<circle cx="702" cy="562" r="2" fill="#D2D6DB"/>
<circle cx="730" cy="562" r="2" fill="#D2D6DB"/>
<circle cx="758" cy="562" r="2" fill="#D2D6DB"/>
<circle cx="786" cy="562" r="2" fill="#D2D6DB"/>
<circle cx="814" cy="562" r="2" fill="#D2D6DB"/>
<circle cx="842" cy="562" r="2" fill="#D2D6DB"/>
<circle cx="870" cy="562" r="2" fill="#D2D6DB"/>
<circle cx="898" cy="562" r="2" fill="#D2D6DB"/>
<circle cx="926" cy="562" r="2" fill="#D2D6DB"/>
<circle cx="954" cy="562" r="2" fill="#D2D6DB"/>
<circle cx="982" cy="562" r="2" fill="#D2D6DB"/>
<circle cx="1010" cy="562" r="2" fill="#D2D6DB"/>
<circle cx="1038" cy="562" r="2" fill="#D2D6DB"/>
<circle cx="1066" cy="562" r="2" fill="#D2D6DB"/>
<circle cx="1094" cy="562" r="2" fill="#D2D6DB"/>
<circle cx="1122" cy="562" r="2" fill="#D2D6DB"/>
<circle cx="1150" cy="562" r="2" fill="#D2D6DB"/>
<circle cx="1178" cy="562" r="2" fill="#D2D6DB"/>
<circle cx="1206" cy="562" r="2" fill="#D2D6DB"/>
<circle cx="1234" cy="562" r="2" fill="#D2D6DB"/>
<circle cx="2" cy="590" r="2" fill="#D2D6DB"/>
<circle cx="30" cy="590" r="2" fill="#D2D6DB"/>
<circle cx="58" cy="590" r="2" fill="#D2D6DB"/>
<circle cx="86" cy="590" r="2" fill="#D2D6DB"/>
<circle cx="114" cy="590" r="2" fill="#D2D6DB"/>
<circle cx="142" cy="590" r="2" fill="#D2D6DB"/>
<circle cx="170" cy="590" r="2" fill="#D2D6DB"/>
<circle cx="198" cy="590" r="2" fill="#D2D6DB"/>
<circle cx="226" cy="590" r="2" fill="#D2D6DB"/>
<circle cx="254" cy="590" r="2" fill="#D2D6DB"/>
<circle cx="282" cy="590" r="2" fill="#D2D6DB"/>
<circle cx="310" cy="590" r="2" fill="#D2D6DB"/>
<circle cx="338" cy="590" r="2" fill="#D2D6DB"/>
<circle cx="366" cy="590" r="2" fill="#D2D6DB"/>
<circle cx="394" cy="590" r="2" fill="#D2D6DB"/>
<circle cx="422" cy="590" r="2" fill="#D2D6DB"/>
<circle cx="450" cy="590" r="2" fill="#D2D6DB"/>
<circle cx="478" cy="590" r="2" fill="#D2D6DB"/>
<circle cx="506" cy="590" r="2" fill="#D2D6DB"/>
<circle cx="534" cy="590" r="2" fill="#D2D6DB"/>
<circle cx="562" cy="590" r="2" fill="#D2D6DB"/>
<circle cx="590" cy="590" r="2" fill="#D2D6DB"/>
<circle cx="618" cy="590" r="2" fill="#D2D6DB"/>
<circle cx="646" cy="590" r="2" fill="#D2D6DB"/>
<circle cx="674" cy="590" r="2" fill="#D2D6DB"/>
<circle cx="702" cy="590" r="2" fill="#D2D6DB"/>
<circle cx="730" cy="590" r="2" fill="#D2D6DB"/>
<circle cx="758" cy="590" r="2" fill="#D2D6DB"/>
<circle cx="786" cy="590" r="2" fill="#D2D6DB"/>
<circle cx="814" cy="590" r="2" fill="#D2D6DB"/>
<circle cx="842" cy="590" r="2" fill="#D2D6DB"/>
<circle cx="870" cy="590" r="2" fill="#D2D6DB"/>
<circle cx="898" cy="590" r="2" fill="#D2D6DB"/>
<circle cx="926" cy="590" r="2" fill="#D2D6DB"/>
<circle cx="954" cy="590" r="2" fill="#D2D6DB"/>
<circle cx="982" cy="590" r="2" fill="#D2D6DB"/>
<circle cx="1010" cy="590" r="2" fill="#D2D6DB"/>
<circle cx="1038" cy="590" r="2" fill="#D2D6DB"/>
<circle cx="1066" cy="590" r="2" fill="#D2D6DB"/>
<circle cx="1094" cy="590" r="2" fill="#D2D6DB"/>
<circle cx="1122" cy="590" r="2" fill="#D2D6DB"/>
<circle cx="1150" cy="590" r="2" fill="#D2D6DB"/>
<circle cx="1178" cy="590" r="2" fill="#D2D6DB"/>
<circle cx="1206" cy="590" r="2" fill="#D2D6DB"/>
<circle cx="1234" cy="590" r="2" fill="#D2D6DB"/>
<circle cx="2" cy="618" r="2" fill="#D2D6DB"/>
<circle cx="30" cy="618" r="2" fill="#D2D6DB"/>
<circle cx="58" cy="618" r="2" fill="#D2D6DB"/>
<circle cx="86" cy="618" r="2" fill="#D2D6DB"/>
<circle cx="114" cy="618" r="2" fill="#D2D6DB"/>
<circle cx="142" cy="618" r="2" fill="#D2D6DB"/>
<circle cx="170" cy="618" r="2" fill="#D2D6DB"/>
<circle cx="198" cy="618" r="2" fill="#D2D6DB"/>
<circle cx="226" cy="618" r="2" fill="#D2D6DB"/>
<circle cx="254" cy="618" r="2" fill="#D2D6DB"/>
<circle cx="282" cy="618" r="2" fill="#D2D6DB"/>
<circle cx="310" cy="618" r="2" fill="#D2D6DB"/>
<circle cx="338" cy="618" r="2" fill="#D2D6DB"/>
<circle cx="366" cy="618" r="2" fill="#D2D6DB"/>
<circle cx="394" cy="618" r="2" fill="#D2D6DB"/>
<circle cx="422" cy="618" r="2" fill="#D2D6DB"/>
<circle cx="450" cy="618" r="2" fill="#D2D6DB"/>
<circle cx="478" cy="618" r="2" fill="#D2D6DB"/>
<circle cx="506" cy="618" r="2" fill="#D2D6DB"/>
<circle cx="534" cy="618" r="2" fill="#D2D6DB"/>
<circle cx="562" cy="618" r="2" fill="#D2D6DB"/>
<circle cx="590" cy="618" r="2" fill="#D2D6DB"/>
<circle cx="618" cy="618" r="2" fill="#D2D6DB"/>
<circle cx="646" cy="618" r="2" fill="#D2D6DB"/>
<circle cx="674" cy="618" r="2" fill="#D2D6DB"/>
<circle cx="702" cy="618" r="2" fill="#D2D6DB"/>
<circle cx="730" cy="618" r="2" fill="#D2D6DB"/>
<circle cx="758" cy="618" r="2" fill="#D2D6DB"/>
<circle cx="786" cy="618" r="2" fill="#D2D6DB"/>
<circle cx="814" cy="618" r="2" fill="#D2D6DB"/>
<circle cx="842" cy="618" r="2" fill="#D2D6DB"/>
<circle cx="870" cy="618" r="2" fill="#D2D6DB"/>
<circle cx="898" cy="618" r="2" fill="#D2D6DB"/>
<circle cx="926" cy="618" r="2" fill="#D2D6DB"/>
<circle cx="954" cy="618" r="2" fill="#D2D6DB"/>
<circle cx="982" cy="618" r="2" fill="#D2D6DB"/>
<circle cx="1010" cy="618" r="2" fill="#D2D6DB"/>
<circle cx="1038" cy="618" r="2" fill="#D2D6DB"/>
<circle cx="1066" cy="618" r="2" fill="#D2D6DB"/>
<circle cx="1094" cy="618" r="2" fill="#D2D6DB"/>
<circle cx="1122" cy="618" r="2" fill="#D2D6DB"/>
<circle cx="1150" cy="618" r="2" fill="#D2D6DB"/>
<circle cx="1178" cy="618" r="2" fill="#D2D6DB"/>
<circle cx="1206" cy="618" r="2" fill="#D2D6DB"/>
<circle cx="1234" cy="618" r="2" fill="#D2D6DB"/>
</g>
<g filter="url(#filter0_d_1_14773)">
<rect x="127" y="413" width="987" height="47" rx="4" fill="white"/>
</g>
<path d="M149.92 446C149.222 446 148.777 445.543 148.777 444.819V428.861C148.777 428.138 149.222 427.681 149.92 427.681H159.226C159.873 427.681 160.317 428.1 160.317 428.709C160.317 429.318 159.873 429.737 159.226 429.737H151.062V435.615H158.769C159.403 435.615 159.848 436.021 159.848 436.631C159.848 437.228 159.403 437.646 158.769 437.646H151.062V443.943H159.226C159.873 443.943 160.317 444.362 160.317 444.972C160.317 445.581 159.873 446 159.226 446H149.92ZM163.91 446.229C163.263 446.229 162.806 445.746 162.806 445.048V433.686C162.806 433.025 163.237 432.568 163.847 432.568C164.456 432.568 164.888 433.025 164.888 433.686V434.904H164.938C165.675 433.482 167.084 432.568 169.128 432.568C172.022 432.568 173.698 434.435 173.698 437.431V445.048C173.698 445.746 173.241 446.229 172.594 446.229C171.946 446.229 171.489 445.746 171.489 445.048V437.824C171.489 435.691 170.486 434.523 168.455 434.523C166.373 434.523 165.015 435.996 165.015 438.23V445.048C165.015 445.746 164.558 446.229 163.91 446.229ZM177.228 442.953V434.612H176.123C175.488 434.612 175.133 434.282 175.133 433.698C175.133 433.127 175.488 432.797 176.123 432.797H177.228V430.537C177.228 429.839 177.685 429.356 178.332 429.356C178.979 429.356 179.437 429.839 179.437 430.537V432.797H181.138C181.772 432.797 182.128 433.127 182.128 433.698C182.128 434.282 181.772 434.612 181.138 434.612H179.437V442.471C179.437 443.588 179.83 444.121 180.935 444.197L181.125 444.21C181.849 444.261 182.179 444.553 182.179 445.073C182.179 445.746 181.798 446.102 180.566 446.102H180.427C178.294 446.102 177.228 445.061 177.228 442.953ZM189.517 446.229C185.619 446.229 183.334 443.715 183.334 439.449C183.334 435.285 185.683 432.568 189.326 432.568C192.703 432.568 195.077 435.095 195.077 438.713C195.077 439.513 194.62 439.995 193.858 439.995H185.606C185.606 442.661 187.066 444.312 189.428 444.312C191.002 444.312 191.967 443.753 192.995 442.255C193.224 441.938 193.478 441.811 193.82 441.811C194.404 441.811 194.798 442.191 194.798 442.775C194.798 442.953 194.734 443.182 194.633 443.423C193.782 445.213 191.929 446.229 189.517 446.229ZM185.619 438.269H192.792C192.741 435.983 191.332 434.485 189.288 434.485C187.231 434.485 185.759 435.996 185.619 438.269ZM198.416 446.229C197.769 446.229 197.312 445.746 197.312 445.048V433.686C197.312 433.025 197.743 432.568 198.353 432.568C198.962 432.568 199.394 433.025 199.394 433.686V434.955H199.444C199.825 433.584 201.12 432.568 202.44 432.568C202.923 432.568 203.266 432.683 203.481 432.886C203.672 433.063 203.761 433.317 203.761 433.622C203.761 433.965 203.646 434.219 203.418 434.396C203.189 434.587 202.847 434.676 202.364 434.676C200.371 434.676 199.521 436.11 199.521 437.799V445.048C199.521 445.746 199.063 446.229 198.416 446.229ZM211.962 450.938C210.896 450.938 210.299 450.545 210.299 449.847C210.299 449.364 210.629 449.034 211.188 449.034C211.505 449.034 211.594 449.047 211.937 449.047C212.774 449.047 213.574 448.539 214.095 446.939L214.399 446.013L209.854 434.168C209.778 433.952 209.74 433.749 209.74 433.584C209.74 432.975 210.21 432.568 210.845 432.568C211.365 432.568 211.695 432.797 211.898 433.381L215.542 443.791H215.58L219.236 433.381C219.439 432.797 219.731 432.568 220.277 432.568C220.912 432.568 221.356 432.987 221.356 433.584C221.356 433.749 221.318 433.952 221.242 434.168L216.367 446.927C215.225 449.961 214.146 450.938 211.962 450.938ZM228.402 446.229C224.746 446.229 222.283 443.601 222.283 439.398C222.283 435.184 224.746 432.568 228.402 432.568C232.046 432.568 234.509 435.184 234.509 439.398C234.509 443.601 232.046 446.229 228.402 446.229ZM228.402 444.286C230.738 444.286 232.262 442.509 232.262 439.398C232.262 436.288 230.738 434.511 228.402 434.511C226.066 434.511 224.53 436.288 224.53 439.398C224.53 442.509 226.066 444.286 228.402 444.286ZM241.25 446.229C238.368 446.229 236.68 444.362 236.68 441.366V433.749C236.68 433.051 237.137 432.568 237.784 432.568C238.432 432.568 238.889 433.051 238.889 433.749V440.973C238.889 443.118 239.892 444.273 241.936 444.273C244.081 444.273 245.376 442.801 245.376 440.554V433.749C245.376 433.051 245.833 432.568 246.48 432.568C247.128 432.568 247.585 433.051 247.585 433.749V445.111C247.585 445.746 247.179 446.229 246.544 446.229C245.909 446.229 245.49 445.746 245.49 445.111V443.854H245.439C244.652 445.378 243.281 446.229 241.25 446.229ZM251.559 446.229C250.911 446.229 250.454 445.746 250.454 445.048V433.686C250.454 433.025 250.886 432.568 251.495 432.568C252.104 432.568 252.536 433.025 252.536 433.686V434.955H252.587C252.968 433.584 254.263 432.568 255.583 432.568C256.065 432.568 256.408 432.683 256.624 432.886C256.814 433.063 256.903 433.317 256.903 433.622C256.903 433.965 256.789 434.219 256.561 434.396C256.332 434.587 255.989 434.676 255.507 434.676C253.514 434.676 252.663 436.11 252.663 437.799V445.048C252.663 445.746 252.206 446.229 251.559 446.229ZM264.521 442.953V434.612H263.416C262.781 434.612 262.426 434.282 262.426 433.698C262.426 433.127 262.781 432.797 263.416 432.797H264.521V430.537C264.521 429.839 264.978 429.356 265.625 429.356C266.272 429.356 266.729 429.839 266.729 430.537V432.797H268.431C269.065 432.797 269.421 433.127 269.421 433.698C269.421 434.282 269.065 434.612 268.431 434.612H266.729V442.471C266.729 443.588 267.123 444.121 268.228 444.197L268.418 444.21C269.142 444.261 269.472 444.553 269.472 445.073C269.472 445.746 269.091 446.102 267.859 446.102H267.72C265.587 446.102 264.521 445.061 264.521 442.953ZM276.81 446.229C272.912 446.229 270.627 443.715 270.627 439.449C270.627 435.285 272.976 432.568 276.619 432.568C279.996 432.568 282.37 435.095 282.37 438.713C282.37 439.513 281.913 439.995 281.151 439.995H272.899C272.899 442.661 274.359 444.312 276.721 444.312C278.295 444.312 279.26 443.753 280.288 442.255C280.517 441.938 280.771 441.811 281.113 441.811C281.697 441.811 282.091 442.191 282.091 442.775C282.091 442.953 282.027 443.182 281.926 443.423C281.075 445.213 279.222 446.229 276.81 446.229ZM272.912 438.269H280.085C280.034 435.983 278.625 434.485 276.581 434.485C274.524 434.485 273.052 435.996 272.912 438.269ZM284.846 446.229C284.249 446.229 283.805 445.822 283.805 445.276C283.805 445.061 283.881 444.845 284.021 444.642L287.829 439.398L284.097 434.181C283.944 433.965 283.868 433.749 283.868 433.508C283.868 432.975 284.338 432.568 284.947 432.568C285.328 432.568 285.544 432.695 285.785 433.038L289.048 437.748H289.099L292.285 433.089C292.539 432.721 292.78 432.568 293.136 432.568C293.758 432.568 294.228 432.975 294.228 433.508C294.228 433.736 294.151 433.965 294.012 434.155L290.241 439.31L293.961 444.604C294.113 444.832 294.189 445.048 294.189 445.264C294.189 445.81 293.732 446.229 293.136 446.229C292.78 446.229 292.488 446.089 292.298 445.797L289.022 440.973H288.972L285.671 445.797C285.468 446.089 285.201 446.229 284.846 446.229ZM297.274 442.953V434.612H296.17C295.535 434.612 295.18 434.282 295.18 433.698C295.18 433.127 295.535 432.797 296.17 432.797H297.274V430.537C297.274 429.839 297.731 429.356 298.379 429.356C299.026 429.356 299.483 429.839 299.483 430.537V432.797H301.185C301.819 432.797 302.175 433.127 302.175 433.698C302.175 434.282 301.819 434.612 301.185 434.612H299.483V442.471C299.483 443.588 299.877 444.121 300.981 444.197L301.172 444.21C301.896 444.261 302.226 444.553 302.226 445.073C302.226 445.746 301.845 446.102 300.613 446.102H300.474C298.341 446.102 297.274 445.061 297.274 442.953ZM310.452 442.953V434.612H309.348C308.713 434.612 308.357 434.282 308.357 433.698C308.357 433.127 308.713 432.797 309.348 432.797H310.452V430.537C310.452 429.839 310.909 429.356 311.557 429.356C312.204 429.356 312.661 429.839 312.661 430.537V432.797H314.362C314.997 432.797 315.353 433.127 315.353 433.698C315.353 434.282 314.997 434.612 314.362 434.612H312.661V442.471C312.661 443.588 313.055 444.121 314.159 444.197L314.35 444.21C315.073 444.261 315.403 444.553 315.403 445.073C315.403 445.746 315.022 446.102 313.791 446.102H313.651C311.519 446.102 310.452 445.061 310.452 442.953ZM322.678 446.229C319.021 446.229 316.559 443.601 316.559 439.398C316.559 435.184 319.021 432.568 322.678 432.568C326.321 432.568 328.784 435.184 328.784 439.398C328.784 443.601 326.321 446.229 322.678 446.229ZM322.678 444.286C325.014 444.286 326.537 442.509 326.537 439.398C326.537 436.288 325.014 434.511 322.678 434.511C320.342 434.511 318.806 436.288 318.806 439.398C318.806 442.509 320.342 444.286 322.678 444.286ZM337.062 442.953V434.612H335.957C335.322 434.612 334.967 434.282 334.967 433.698C334.967 433.127 335.322 432.797 335.957 432.797H337.062V430.537C337.062 429.839 337.519 429.356 338.166 429.356C338.813 429.356 339.271 429.839 339.271 430.537V432.797H340.972C341.606 432.797 341.962 433.127 341.962 433.698C341.962 434.282 341.606 434.612 340.972 434.612H339.271V442.471C339.271 443.588 339.664 444.121 340.769 444.197L340.959 444.21C341.683 444.261 342.013 444.553 342.013 445.073C342.013 445.746 341.632 446.102 340.4 446.102H340.261C338.128 446.102 337.062 445.061 337.062 442.953ZM345.301 446.229C344.653 446.229 344.196 445.746 344.196 445.048V433.686C344.196 433.025 344.628 432.568 345.237 432.568C345.847 432.568 346.278 433.025 346.278 433.686V434.955H346.329C346.71 433.584 348.005 432.568 349.325 432.568C349.808 432.568 350.15 432.683 350.366 432.886C350.557 433.063 350.646 433.317 350.646 433.622C350.646 433.965 350.531 434.219 350.303 434.396C350.074 434.587 349.731 434.676 349.249 434.676C347.256 434.676 346.405 436.11 346.405 437.799V445.048C346.405 445.746 345.948 446.229 345.301 446.229ZM355.812 446.229C353.185 446.229 351.42 444.642 351.42 442.268C351.42 440.008 353.159 438.586 356.206 438.408L360.002 438.192V437.088C360.002 435.476 358.936 434.511 357.107 434.511C355.673 434.511 354.695 435.031 353.959 436.339C353.756 436.707 353.464 436.872 353.045 436.872C352.474 436.872 352.067 436.479 352.067 435.882C352.067 435.603 352.156 435.285 352.334 434.968C353.083 433.521 355.013 432.568 357.158 432.568C360.256 432.568 362.211 434.244 362.211 436.872V445.111C362.211 445.771 361.779 446.229 361.17 446.229C360.548 446.229 360.116 445.771 360.116 445.111V443.728H360.065C359.278 445.238 357.59 446.229 355.812 446.229ZM356.308 444.35C358.39 444.35 360.002 442.89 360.002 440.985V439.906L356.46 440.122C354.683 440.236 353.667 441.023 353.667 442.268C353.667 443.524 354.721 444.35 356.308 444.35ZM366.121 446.229C365.474 446.229 365.017 445.746 365.017 445.048V433.686C365.017 433.025 365.448 432.568 366.058 432.568C366.667 432.568 367.099 433.025 367.099 433.686V434.904H367.149C367.886 433.482 369.295 432.568 371.339 432.568C374.233 432.568 375.909 434.435 375.909 437.431V445.048C375.909 445.746 375.452 446.229 374.805 446.229C374.157 446.229 373.7 445.746 373.7 445.048V437.824C373.7 435.691 372.697 434.523 370.666 434.523C368.584 434.523 367.226 435.996 367.226 438.23V445.048C367.226 445.746 366.769 446.229 366.121 446.229ZM383.311 446.229C380.962 446.229 379.121 445.175 378.486 443.524C378.41 443.334 378.385 443.169 378.385 443.004C378.385 442.42 378.816 442.09 379.388 442.09C379.781 442.09 380.099 442.293 380.353 442.75C381.013 443.905 381.8 444.426 383.488 444.426C385.177 444.426 386.319 443.689 386.319 442.458C386.319 441.506 385.773 440.998 384.288 440.63L382.27 440.122C379.718 439.487 378.486 438.281 378.486 436.428C378.486 434.13 380.505 432.568 383.488 432.568C385.659 432.568 387.589 433.787 387.932 435.374C387.957 435.501 387.97 435.603 387.97 435.704C387.97 436.225 387.64 436.567 387.106 436.567C386.675 436.567 386.37 436.428 386.129 435.971C385.558 434.866 384.707 434.384 383.361 434.384C381.774 434.384 380.67 435.184 380.67 436.313C380.67 437.228 381.381 437.862 382.828 438.218L384.796 438.7C387.551 439.373 388.566 440.338 388.566 442.28C388.566 444.642 386.446 446.229 383.311 446.229ZM392.058 446.229C391.41 446.229 390.953 445.746 390.953 445.048V428.633C390.953 427.935 391.41 427.452 392.058 427.452C392.705 427.452 393.162 427.935 393.162 428.633V445.048C393.162 445.746 392.705 446.229 392.058 446.229ZM399.992 446.229C397.364 446.229 395.6 444.642 395.6 442.268C395.6 440.008 397.339 438.586 400.386 438.408L404.182 438.192V437.088C404.182 435.476 403.115 434.511 401.287 434.511C399.853 434.511 398.875 435.031 398.139 436.339C397.936 436.707 397.644 436.872 397.225 436.872C396.653 436.872 396.247 436.479 396.247 435.882C396.247 435.603 396.336 435.285 396.514 434.968C397.263 433.521 399.192 432.568 401.338 432.568C404.436 432.568 406.391 434.244 406.391 436.872V445.111C406.391 445.771 405.959 446.229 405.35 446.229C404.728 446.229 404.296 445.771 404.296 445.111V443.728H404.245C403.458 445.238 401.77 446.229 399.992 446.229ZM400.487 444.35C402.569 444.35 404.182 442.89 404.182 440.985V439.906L400.64 440.122C398.862 440.236 397.847 441.023 397.847 442.268C397.847 443.524 398.9 444.35 400.487 444.35ZM409.907 442.953V434.612H408.803C408.168 434.612 407.812 434.282 407.812 433.698C407.812 433.127 408.168 432.797 408.803 432.797H409.907V430.537C409.907 429.839 410.364 429.356 411.012 429.356C411.659 429.356 412.116 429.839 412.116 430.537V432.797H413.817C414.452 432.797 414.808 433.127 414.808 433.698C414.808 434.282 414.452 434.612 413.817 434.612H412.116V442.471C412.116 443.588 412.51 444.121 413.614 444.197L413.805 444.21C414.528 444.261 414.858 444.553 414.858 445.073C414.858 445.746 414.478 446.102 413.246 446.102H413.106C410.974 446.102 409.907 445.061 409.907 442.953ZM422.196 446.229C418.299 446.229 416.014 443.715 416.014 439.449C416.014 435.285 418.362 432.568 422.006 432.568C425.383 432.568 427.757 435.095 427.757 438.713C427.757 439.513 427.3 439.995 426.538 439.995H418.286C418.286 442.661 419.746 444.312 422.107 444.312C423.682 444.312 424.646 443.753 425.675 442.255C425.903 441.938 426.157 441.811 426.5 441.811C427.084 441.811 427.478 442.191 427.478 442.775C427.478 442.953 427.414 443.182 427.312 443.423C426.462 445.213 424.608 446.229 422.196 446.229ZM418.299 438.269H425.472C425.421 435.983 424.012 434.485 421.968 434.485C419.911 434.485 418.438 435.996 418.299 438.269ZM431.857 446.127C431.045 446.127 430.41 445.492 430.41 444.68C430.41 443.867 431.045 443.232 431.857 443.232C432.67 443.232 433.305 443.867 433.305 444.68C433.305 445.492 432.67 446.127 431.857 446.127ZM438.459 446.127C437.646 446.127 437.012 445.492 437.012 444.68C437.012 443.867 437.646 443.232 438.459 443.232C439.271 443.232 439.906 443.867 439.906 444.68C439.906 445.492 439.271 446.127 438.459 446.127ZM445.061 446.127C444.248 446.127 443.613 445.492 443.613 444.68C443.613 443.867 444.248 443.232 445.061 443.232C445.873 443.232 446.508 443.867 446.508 444.68C446.508 445.492 445.873 446.127 445.061 446.127Z" fill="black" fill-opacity="0.25"/>
<g opacity="0.75" filter="url(#filter1_d_1_14773)">
<ellipse cx="722.5" cy="265.5" rx="243.5" ry="49.5" fill="white"/>
</g>
<g filter="url(#filter2_d_1_14773)">
<path d="M491.984 277.828V250.078H488.984C486.125 250.078 484.391 248.484 484.391 245.906C484.391 243.281 486.078 241.734 488.984 241.734H492.172V234.469C492.172 230.906 494 228.844 497.234 228.844C500.469 228.844 502.344 230.906 502.344 234.469V241.734H508.062C510.969 241.734 512.609 243.281 512.609 245.906C512.609 248.484 510.922 250.078 508.062 250.078H502.438V277.078C502.438 281.953 503.656 283.453 507.781 283.453C509.094 283.453 509.984 283.312 511.016 283.312C512.984 283.312 514.391 284.625 514.391 286.688C514.391 288.281 513.641 289.641 512.094 290.531C510.547 291.422 508.297 291.891 505.25 291.891C495.875 291.891 491.984 288 491.984 277.828ZM533.891 285.703C533.891 289.359 531.969 291.469 528.641 291.469C525.312 291.469 523.484 289.359 523.484 285.703V246.797C523.484 243.141 525.406 241.031 528.688 241.031C531.781 241.031 533.562 242.953 533.703 246.281V247.781H534.078C536.328 243.094 540.078 240.703 544.672 240.703C546.312 240.703 547.672 241.078 548.609 241.828C549.734 242.578 550.344 243.844 550.344 245.391C550.344 247.031 549.781 248.203 548.656 248.953C547.719 249.609 546.359 249.891 544.578 249.938C537.5 250.031 533.891 253.875 533.891 261.656V285.703ZM585.031 284.578C582.312 289.172 577.344 291.703 571.203 291.703C561.547 291.703 555.031 285.609 555.031 276.609C555.031 267.469 561.688 261.891 572.75 261.844H585.125V257.438C585.125 251.859 581.703 248.953 575.375 248.953C571.438 248.953 568.719 250.359 565.859 253.266C564.594 254.484 563.375 254.953 561.594 254.953C559.297 254.953 557.797 253.406 557.797 251.156C557.797 248.297 559.766 245.484 563.938 243.234C566.938 241.594 570.875 240.703 576.031 240.703C588.547 240.703 595.531 246.703 595.531 257.484V285.844C595.531 289.406 593.703 291.469 590.469 291.469C587.609 291.469 585.781 289.734 585.547 286.781V284.578H585.031ZM565.484 276.094C565.484 280.688 569.094 283.781 574.438 283.781C580.484 283.781 585.125 279.656 585.125 274.312V268.969H574.203C568.672 268.969 565.484 271.547 565.484 276.094ZM650.422 285.75C650.422 289.406 648.5 291.469 645.219 291.469C641.891 291.469 639.969 289.359 639.969 285.703V260.438C639.969 253.453 636.5 249.609 630.219 249.609C623.047 249.609 618.5 254.812 618.5 263.391V285.703C618.5 289.359 616.578 291.469 613.297 291.469C609.969 291.469 608.094 289.359 608.094 285.703V246.656C608.094 243.141 610.062 241.031 613.25 241.031C616.391 241.031 618.219 242.953 618.312 246.375V250.359H618.828C620.844 244.312 626.328 240.703 633.734 240.703C644.328 240.703 650.422 246.844 650.422 257.531V285.75ZM660.5 281.016C660.5 278.484 662.141 276.844 664.672 276.844C666.125 276.844 667.25 277.5 669.172 279.328C672.5 282.469 676.016 283.969 680.516 283.969C686.188 283.969 689.703 281.531 689.703 277.547C689.703 274.406 687.359 272.062 682.906 271.078L674.375 269.109C665.422 267.094 661.203 262.688 661.203 255.562C661.203 246.469 668.703 240.516 680.375 240.516C685.203 240.516 689.703 241.641 693.219 243.75C696.547 245.672 698.516 248.391 698.516 251.062C698.516 253.453 696.875 254.953 694.391 254.953C692.938 254.953 691.906 254.484 689.75 252.656C686.328 249.562 683.609 248.438 679.859 248.438C674.516 248.438 671.281 250.922 671.281 254.859C671.281 258.047 673.391 259.969 677.984 261.047L686.984 263.109C695.75 265.125 699.828 269.438 699.828 276.656C699.828 286.078 692.281 291.938 679.953 291.938C674.75 291.938 669.875 290.812 666.219 288.797C662.562 286.781 660.5 284.016 660.5 281.016ZM716.094 291.469C713 291.469 710.938 289.547 710.938 285.703V229.078C710.938 225.234 713 223.312 716.094 223.312C719.234 223.312 721.344 225.234 721.344 229.078V285.703C721.344 289.547 719.234 291.469 716.094 291.469ZM762.219 284.578C759.5 289.172 754.531 291.703 748.391 291.703C738.734 291.703 732.219 285.609 732.219 276.609C732.219 267.469 738.875 261.891 749.938 261.844H762.312V257.438C762.312 251.859 758.891 248.953 752.562 248.953C748.625 248.953 745.906 250.359 743.047 253.266C741.781 254.484 740.562 254.953 738.781 254.953C736.484 254.953 734.984 253.406 734.984 251.156C734.984 248.297 736.953 245.484 741.125 243.234C744.125 241.594 748.062 240.703 753.219 240.703C765.734 240.703 772.719 246.703 772.719 257.484V285.844C772.719 289.406 770.891 291.469 767.656 291.469C764.797 291.469 762.969 289.734 762.734 286.781V284.578H762.219ZM742.672 276.094C742.672 280.688 746.281 283.781 751.625 283.781C757.672 283.781 762.312 279.656 762.312 274.312V268.969H751.391C745.859 268.969 742.672 271.547 742.672 276.094ZM788.516 277.828V250.078H785.516C782.656 250.078 780.922 248.484 780.922 245.906C780.922 243.281 782.609 241.734 785.516 241.734H788.703V234.469C788.703 230.906 790.531 228.844 793.766 228.844C797 228.844 798.875 230.906 798.875 234.469V241.734H804.594C807.5 241.734 809.141 243.281 809.141 245.906C809.141 248.484 807.453 250.078 804.594 250.078H798.969V277.078C798.969 281.953 800.188 283.453 804.312 283.453C805.625 283.453 806.516 283.312 807.547 283.312C809.516 283.312 810.922 284.625 810.922 286.688C810.922 288.281 810.172 289.641 808.625 290.531C807.078 291.422 804.828 291.891 801.781 291.891C792.406 291.891 788.516 288 788.516 277.828ZM817.062 269.812V262.781C817.062 249.562 825.828 240.516 838.625 240.516C850.859 240.516 859.531 249.328 859.531 261.516C859.531 267 858.219 268.688 854.094 268.688H827.656V271.031C827.656 278.672 832.438 283.547 840.266 283.547C844.25 283.547 847.203 282.422 849.594 280.266C852.031 278.203 852.781 277.688 854.422 277.688C856.672 277.688 858.219 279.328 858.219 281.719C858.219 283.547 857.094 285.516 855.172 287.062C851.984 290.109 846.172 291.938 839.656 291.938C825.688 291.938 817.062 283.594 817.062 269.812ZM827.656 261.422H849.453V261.281C849.453 253.734 845.281 248.859 838.766 248.859C832.062 248.859 827.656 253.875 827.656 261.281V261.422ZM881.141 303.047C881.141 306.75 879.219 308.812 875.891 308.812C872.609 308.812 870.734 306.75 870.734 303.047V246.797C870.734 243.094 872.516 241.031 875.75 241.031C878.891 241.031 880.719 242.906 880.859 246.281V249.328H881.375C883.391 243.984 888.969 240.703 896 240.703C907.578 240.703 914.703 248.906 914.703 262.312V270.047C914.703 283.5 907.484 291.703 895.766 291.703C888.969 291.703 883.859 288.75 881.656 283.547H881.141V303.047ZM881.141 270.375C881.141 278.016 885.875 283.125 892.812 283.125C899.984 283.125 904.109 277.828 904.109 268.641V263.766C904.109 254.484 899.984 249.281 892.672 249.281C885.5 249.281 881.141 254.297 881.141 262.781V270.375ZM922.484 304.078C922.484 301.922 924.125 300.469 926.609 300.469C927.453 300.469 928.344 300.656 929.562 300.656C932.562 300.656 935.188 298.219 936.312 294.422C936.406 294.281 937.016 291.891 937.016 291.656L921.828 249.328C921.406 248.062 921.219 247.031 921.219 246.188C921.219 243.375 923.422 241.266 926.422 241.266C929.141 241.266 930.922 242.906 931.859 246.328L942.641 281.766H943.062L953.938 246.328C954.875 242.906 956.609 241.266 959.281 241.266C962.141 241.266 964.297 243.328 964.297 246.141C964.297 246.984 964.062 247.969 963.594 249.328L947.891 293.766C944.141 304.453 938.797 308.766 929.844 308.766C927.078 308.766 924.875 308.109 923.656 306.891C922.906 306.141 922.484 305.203 922.484 304.078Z" fill="black"/>
</g>
<g clip-path="url(#clip2_1_14773)">
<g opacity="0.75" filter="url(#filter3_d_1_14773)">
<circle cx="360.167" cy="255.611" r="61.8333" fill="white"/>
</g>
<g filter="url(#filter4_d_1_14773)">
<path d="M307.083 211.083H349.343C350.612 211.084 351.853 211.46 352.908 212.165C353.963 212.87 354.785 213.872 355.27 215.045C355.756 216.217 355.883 217.507 355.636 218.751C355.388 219.996 354.777 221.139 353.88 222.037L345.583 230.333M326.333 230.333C326.333 239.958 329.542 249.583 313.5 262.417M352 307.333L377.667 249.583L403.333 307.333M397.558 294.5H357.775" stroke="black" stroke-width="11" stroke-linecap="round" stroke-linejoin="round" shape-rendering="crispEdges"/>
</g>
</g>
</g>
<defs>
<filter id="filter0_d_1_14773" x="97" y="393" width="1047" height="107" filterUnits="userSpaceOnUse" color-interpolation-filters="sRGB">
<feFlood flood-opacity="0" result="BackgroundImageFix"/>
<feColorMatrix in="SourceAlpha" type="matrix" values="0 0 0 0 0 0 0 0 0 0 0 0 0 0 0 0 0 0 127 0" result="hardAlpha"/>
<feMorphology radius="5" operator="erode" in="SourceAlpha" result="effect1_dropShadow_1_14773"/>
<feOffset dy="10"/>
<feGaussianBlur stdDeviation="17.5"/>
<feComposite in2="hardAlpha" operator="out"/>
<feColorMatrix type="matrix" values="0 0 0 0 0 0 0 0 0 0 0 0 0 0 0 0 0 0 0.25 0"/>
<feBlend mode="normal" in2="BackgroundImageFix" result="effect1_dropShadow_1_14773"/>
<feBlend mode="normal" in="SourceGraphic" in2="effect1_dropShadow_1_14773" result="shape"/>
</filter>
<filter id="filter1_d_1_14773" x="432" y="169" width="581" height="193" filterUnits="userSpaceOnUse" color-interpolation-filters="sRGB">
<feFlood flood-opacity="0" result="BackgroundImageFix"/>
<feColorMatrix in="SourceAlpha" type="matrix" values="0 0 0 0 0 0 0 0 0 0 0 0 0 0 0 0 0 0 127 0" result="hardAlpha"/>
<feMorphology radius="17" operator="dilate" in="SourceAlpha" result="effect1_dropShadow_1_14773"/>
<feOffset/>
<feGaussianBlur stdDeviation="15"/>
<feComposite in2="hardAlpha" operator="out"/>
<feColorMatrix type="matrix" values="0 0 0 0 1 0 0 0 0 1 0 0 0 0 1 0 0 0 1 0"/>
<feBlend mode="normal" in2="BackgroundImageFix" result="effect1_dropShadow_1_14773"/>
<feBlend mode="normal" in="SourceGraphic" in2="effect1_dropShadow_1_14773" result="shape"/>
</filter>
<filter id="filter2_d_1_14773" x="454.391" y="193.312" width="539.906" height="145.5" filterUnits="userSpaceOnUse" color-interpolation-filters="sRGB">
<feFlood flood-opacity="0" result="BackgroundImageFix"/>
<feColorMatrix in="SourceAlpha" type="matrix" values="0 0 0 0 0 0 0 0 0 0 0 0 0 0 0 0 0 0 127 0" result="hardAlpha"/>
<feOffset/>
<feGaussianBlur stdDeviation="15"/>
<feComposite in2="hardAlpha" operator="out"/>
<feColorMatrix type="matrix" values="0 0 0 0 1 0 0 0 0 1 0 0 0 0 1 0 0 0 1 0"/>
<feBlend mode="normal" in2="BackgroundImageFix" result="effect1_dropShadow_1_14773"/>
<feBlend mode="normal" in="SourceGraphic" in2="effect1_dropShadow_1_14773" result="shape"/>
</filter>
<filter id="filter3_d_1_14773" x="282.333" y="181.778" width="155.667" height="155.667" filterUnits="userSpaceOnUse" color-interpolation-filters="sRGB">
<feFlood flood-opacity="0" result="BackgroundImageFix"/>
<feColorMatrix in="SourceAlpha" type="matrix" values="0 0 0 0 0 0 0 0 0 0 0 0 0 0 0 0 0 0 127 0" result="hardAlpha"/>
<feMorphology radius="9" operator="dilate" in="SourceAlpha" result="effect1_dropShadow_1_14773"/>
<feOffset dy="4"/>
<feGaussianBlur stdDeviation="3.5"/>
<feComposite in2="hardAlpha" operator="out"/>
<feColorMatrix type="matrix" values="0 0 0 0 1 0 0 0 0 1 0 0 0 0 1 0 0 0 1 0"/>
<feBlend mode="normal" in2="BackgroundImageFix" result="effect1_dropShadow_1_14773"/>
<feBlend mode="normal" in="SourceGraphic" in2="effect1_dropShadow_1_14773" result="shape"/>
</filter>
<filter id="filter4_d_1_14773" x="271.583" y="175.583" width="167.251" height="167.251" filterUnits="userSpaceOnUse" color-interpolation-filters="sRGB">
<feFlood flood-opacity="0" result="BackgroundImageFix"/>
<feColorMatrix in="SourceAlpha" type="matrix" values="0 0 0 0 0 0 0 0 0 0 0 0 0 0 0 0 0 0 127 0" result="hardAlpha"/>
<feOffset/>
<feGaussianBlur stdDeviation="15"/>
<feComposite in2="hardAlpha" operator="out"/>
<feColorMatrix type="matrix" values="0 0 0 0 1 0 0 0 0 1 0 0 0 0 1 0 0 0 1 0"/>
<feBlend mode="normal" in2="BackgroundImageFix" result="effect1_dropShadow_1_14773"/>
<feBlend mode="normal" in="SourceGraphic" in2="effect1_dropShadow_1_14773" result="shape"/>
</filter>
<clipPath id="clip0_1_14773">
<rect width="1240" height="640" fill="white"/>
</clipPath>
<clipPath id="clip1_1_14773">
<rect width="1280" height="640" fill="white"/>
</clipPath>
<clipPath id="clip2_1_14773">
<rect width="154" height="154" fill="white" transform="translate(275 179)"/>
</clipPath>
</defs>
</svg>
