<?xml version="1.0" standalone="no"?>
<!DOCTYPE svg PUBLIC "-//W3C//DTD SVG 20010904//EN"
 "http://www.w3.org/TR/2001/REC-SVG-20010904/DTD/svg10.dtd">
<svg version="1.0"
    xmlns="http://www.w3.org/2000/svg" width="700.000000pt" height="700.000000pt" viewBox="0 0 700.000000 700.000000" preserveAspectRatio="xMidYMid meet">
    <g transform="translate(0.000000,700.000000) scale(0.100000,-0.100000)" fill="#000000" stroke="none">
        <path d="M1416 5828 c-144 -20 -244 -137 -247 -291 -2 -79 44 -173 108 -222
89 -68 43 -65 1120 -65 535 0 973 -2 973 -4 0 -3 -90 -94 -199 -204 -110 -110
-208 -217 -220 -240 -67 -132 -30 -285 91 -372 82 -60 197 -70 289 -26 74 34
498 460 550 551 85 149 103 302 54 468 -40 136 -153 273 -281 339 -138 73 -94
70 -1200 72 -545 0 -1012 -2 -1038 -6z"/>
        <path d="M2230 4937 c-71 -26 -141 -96 -168 -168 -18 -47 -20 -71 -17 -194 7
-218 6 -396 0 -439 -33 -229 -166 -436 -420 -652 -139 -118 -160 -153 -160
-274 0 -77 3 -90 31 -140 55 -98 159 -156 271 -151 93 3 169 52 347 222 316
302 478 604 514 959 12 124 2 594 -14 650 -13 44 -63 117 -99 145 -82 62 -189
78 -285 42z"/>
        <path d="M4630 4080 c-61 -8 -134 -46 -177 -93 -19 -22 -51 -74 -70 -116 -19
-42 -46 -100 -59 -129 -13 -29 -24 -55 -24 -57 0 -2 -14 -35 -31 -72 -17 -38
-57 -126 -89 -198 -32 -71 -67 -151 -79 -177 -36 -81 -63 -141 -83 -188 -11
-25 -35 -78 -54 -118 -19 -40 -34 -75 -34 -78 0 -3 -12 -31 -26 -62 -14 -31
-107 -239 -206 -462 -98 -223 -188 -424 -199 -447 -10 -24 -29 -64 -40 -90
-12 -27 -32 -70 -44 -98 -13 -27 -30 -66 -38 -85 -9 -19 -49 -109 -89 -200
-71 -161 -73 -167 -73 -245 1 -99 25 -155 91 -213 126 -112 328 -94 425 38 13
17 67 128 120 248 l97 217 718 1 719 2 44 -102 c25 -55 59 -132 77 -171 17
-38 43 -95 56 -126 70 -155 242 -225 389 -157 108 50 173 150 172 268 -1 72
58 -67 -563 1330 -111 250 -238 536 -282 635 -44 99 -90 203 -103 230 -12 28
-73 165 -135 305 -116 261 -135 298 -180 338 -57 52 -152 82 -230 72z m112
-1175 c15 -33 57 -127 93 -210 37 -82 75 -168 85 -190 10 -22 41 -94 70 -160
29 -66 67 -151 85 -190 18 -38 35 -79 39 -91 l6 -21 -455 0 c-251 0 -454 3
-453 7 2 4 104 235 228 514 l225 507 25 -53 c14 -30 37 -81 52 -113z"/>
    </g>
</svg>
